<?xml version="1.0" encoding="UTF-8" ?>
<!DOCTYPE svg PUBLIC "-//W3C//DTD SVG 1.1//EN" "http://www.w3.org/Graphics/SVG/1.1/DTD/svg11.dtd">
<svg width="1446pt" height="785pt" viewBox="0 0 1446 785" version="1.1" xmlns="http://www.w3.org/2000/svg">
<g id="#ff006cff">
<path fill="#ff006c" opacity="1.00" d=" M 671.29 333.91 C 673.69 330.96 677.17 328.69 681.08 328.67 C 686.66 328.66 691.60 331.79 695.80 335.18 C 707.32 344.75 715.53 357.48 723.56 369.95 C 727.58 363.17 732.06 356.65 736.95 350.47 C 732.43 359.96 728.40 369.81 727.06 380.32 C 722.86 380.29 718.67 380.32 714.48 380.31 C 713.96 378.15 713.44 376.00 712.75 373.90 C 712.70 373.78 712.60 373.54 712.55 373.42 C 711.48 370.83 710.26 368.31 708.93 365.85 C 710.76 366.49 712.62 367.05 714.50 367.58 C 708.79 358.53 702.23 349.95 694.59 342.44 C 691.23 339.36 687.54 336.23 683.02 335.12 C 680.91 334.46 678.81 335.35 677.16 336.62 C 675.19 335.72 673.23 334.81 671.29 333.91 Z" />
<path fill="#ff006c" opacity="1.00" d=" M 625.99 374.00 C 632.27 373.99 638.55 374.01 644.84 373.99 C 646.24 375.97 647.41 378.09 648.41 380.30 C 643.05 380.38 637.69 380.32 632.34 380.34 C 632.33 387.17 632.34 394.00 632.34 400.83 C 636.37 400.81 640.41 400.79 644.46 400.82 C 643.41 402.83 642.35 404.86 641.61 407.02 C 636.40 407.31 631.19 407.14 625.99 407.19 C 625.98 396.13 625.97 385.06 625.99 374.00 Z" />
<path fill="#ff006c" opacity="1.00" d=" M 783.08 374.00 C 795.73 374.00 808.37 374.00 821.02 374.00 C 821.02 380.06 821.01 386.12 820.98 392.18 C 818.97 393.80 816.88 395.31 814.68 396.64 C 814.64 391.20 814.67 385.77 814.71 380.34 C 804.20 380.32 793.69 380.38 783.19 380.31 C 783.08 378.20 783.04 376.10 783.08 374.00 Z" />
<path fill="#ff006c" opacity="1.00" d=" M 708.49 400.83 C 715.18 400.82 721.88 400.82 728.58 400.83 C 729.45 402.95 730.39 405.05 731.41 407.11 C 722.03 407.10 712.66 407.11 703.28 407.10 C 704.98 404.98 706.73 402.90 708.49 400.83 Z" />
<path fill="#ff006c" opacity="1.00" d=" M 799.04 440.87 C 801.15 442.03 803.26 443.21 805.36 444.40 C 805.35 446.16 805.34 447.93 805.36 449.70 C 803.23 451.08 801.13 452.49 799.04 453.93 C 799.12 449.58 799.12 445.22 799.04 440.87 Z" />
<path fill="#ff006c" opacity="1.00" d=" M 670.74 447.30 C 688.21 453.03 705.66 458.84 723.18 464.44 C 740.85 459.05 758.33 452.93 775.96 447.35 C 771.29 468.99 766.94 490.70 762.26 512.34 C 749.87 515.88 737.45 519.36 725.04 522.86 C 723.36 523.62 721.66 522.83 720.03 522.42 C 708.17 519.06 696.32 515.69 684.46 512.38 C 679.74 490.72 675.36 468.98 670.74 447.30 M 762.94 467.96 C 765.23 468.45 767.77 465.47 766.31 463.49 C 763.94 462.82 762.31 465.94 762.94 467.96 M 689.02 466.07 C 688.78 466.46 688.31 467.24 688.07 467.63 C 691.18 470.39 694.28 473.24 696.61 476.72 C 693.60 476.67 690.36 474.13 687.58 476.01 C 685.87 475.31 684.72 477.49 685.11 478.92 C 686.31 487.01 687.84 495.06 689.17 503.14 C 689.43 505.29 690.80 507.40 692.89 508.16 C 693.81 508.87 694.74 509.60 695.90 509.89 C 702.35 511.60 708.82 513.22 715.20 515.20 C 716.85 515.82 719.80 515.34 719.54 513.03 C 719.76 506.72 719.44 500.40 719.40 494.09 C 717.57 488.71 719.35 482.92 718.46 477.34 C 717.75 477.43 716.33 477.60 715.62 477.68 L 715.57 476.85 L 714.88 477.43 C 714.67 476.28 714.47 474.46 712.94 474.44 C 712.32 472.55 710.11 472.32 708.88 471.03 C 707.36 469.76 705.14 467.33 703.19 469.54 C 702.73 469.45 701.82 469.26 701.36 469.17 C 700.58 470.16 699.84 471.19 699.14 472.25 C 696.93 469.62 695.09 465.44 690.91 466.30 C 690.44 466.24 689.49 466.13 689.02 466.07 M 762.26 470.43 C 761.30 472.50 762.22 476.61 759.46 477.05 C 759.62 474.92 759.73 471.57 757.01 471.08 C 752.07 470.90 748.11 476.31 748.92 481.00 C 749.36 483.04 751.61 483.38 753.36 483.40 C 751.38 485.00 749.44 486.63 747.44 488.19 C 747.80 488.88 748.53 490.24 748.89 490.92 C 751.83 488.52 755.24 486.49 757.26 483.16 C 758.33 481.37 760.84 481.66 762.22 480.20 C 765.41 477.57 765.21 473.06 766.33 469.43 C 764.96 469.76 763.60 470.09 762.26 470.43 M 741.62 481.74 C 742.00 482.31 742.78 483.46 743.16 484.03 C 742.37 486.75 739.89 488.38 738.36 490.64 C 738.86 491.17 739.86 492.23 740.35 492.77 C 742.60 490.23 745.51 488.00 746.56 484.65 C 747.27 482.31 746.17 479.99 745.00 478.03 C 743.85 479.25 742.73 480.49 741.62 481.74 M 758.38 484.25 C 757.49 489.02 756.50 493.77 755.59 498.54 C 756.43 498.36 758.10 497.99 758.94 497.80 C 760.02 492.99 761.07 488.17 762.14 483.35 C 760.87 483.64 759.62 483.94 758.38 484.25 M 734.45 490.50 C 732.67 490.81 732.41 494.09 734.54 493.66 C 736.60 493.48 736.69 489.61 734.45 490.50 M 738.10 500.07 C 738.74 501.67 740.66 501.47 742.05 501.71 C 740.35 502.93 738.73 504.23 737.12 505.55 C 737.51 506.04 738.28 507.01 738.67 507.49 C 741.71 505.40 744.65 503.09 746.79 500.03 C 747.48 497.57 747.48 493.85 744.99 492.39 C 740.92 491.55 736.61 496.08 738.10 500.07 M 749.32 496.34 C 749.71 497.19 750.12 498.04 750.54 498.91 C 749.15 500.55 747.60 502.07 745.97 503.47 C 746.30 503.98 746.97 505.00 747.31 505.51 C 751.07 502.91 756.05 498.40 752.65 493.51 C 751.51 494.43 750.40 495.37 749.32 496.34 M 733.20 495.43 C 732.86 497.16 734.02 501.24 730.95 500.28 C 729.84 498.67 728.94 496.93 727.97 495.26 C 726.99 495.95 726.02 496.65 725.06 497.36 C 725.77 498.69 726.76 499.95 726.91 501.52 C 726.15 501.70 724.63 502.06 723.87 502.24 C 723.90 503.06 723.96 504.70 723.99 505.52 C 726.80 504.73 729.56 503.80 732.50 503.63 C 736.71 502.78 736.48 497.99 736.50 494.68 C 735.67 494.87 734.02 495.24 733.20 495.43 Z" />
<path fill="#ff006c" opacity="1.00" d=" M 752.49 478.59 C 752.35 476.81 753.56 475.05 755.50 475.44 C 755.56 476.44 755.63 477.44 755.72 478.45 C 754.63 478.77 753.56 478.82 752.49 478.59 Z" />
<path fill="#ff006c" opacity="1.00" d=" M 707.17 507.60 C 706.64 501.68 711.02 497.26 713.57 492.39 C 713.28 498.12 714.09 503.85 714.06 509.59 C 711.74 508.98 709.45 508.30 707.17 507.60 Z" />
<path fill="#ff006c" opacity="1.00" d=" M 742.22 495.47 C 744.57 494.97 744.24 499.10 741.88 498.37 C 740.07 498.13 740.77 495.62 742.22 495.47 Z" />
<path fill="#ff006c" opacity="1.00" d=" M 641.67 501.80 C 643.76 501.07 645.85 500.29 647.91 499.45 C 647.88 508.29 647.90 517.13 647.90 525.97 C 645.43 525.97 642.98 525.97 640.53 525.96 C 640.00 523.85 639.42 521.76 638.80 519.69 C 639.52 519.70 640.95 519.72 641.66 519.73 C 641.67 513.75 641.66 507.78 641.67 501.80 Z" />
<path fill="#ff006c" opacity="1.00" d=" M 0.00 519.76 C 176.09 519.74 352.19 519.83 528.28 519.69 C 528.13 521.77 527.99 523.87 527.87 525.96 C 351.91 525.99 175.96 525.97 0.00 525.98 L 0.00 519.76 Z" />
<path fill="#ff006c" opacity="1.00" d=" M 918.45 519.69 C 1094.30 519.83 1270.15 519.73 1446.00 519.76 L 1446.00 525.98 C 1271.54 525.97 1097.08 526.00 922.62 525.96 C 921.27 523.83 919.88 521.74 918.45 519.69 Z" />
</g>
<g id="#521cf2ff">
<path fill="#521cf2" opacity="1.00" d=" M 752.93 333.84 C 756.95 330.87 761.75 328.25 766.91 328.71 C 770.99 329.03 774.38 331.77 776.62 335.04 C 775.00 336.43 773.39 337.83 771.80 339.26 C 770.25 336.97 767.96 334.48 764.89 335.04 C 759.98 335.86 756.05 339.30 752.47 342.52 C 744.73 349.94 738.32 358.64 732.50 367.61 C 740.87 365.12 749.10 362.11 756.93 358.25 C 755.42 361.16 753.93 364.08 752.64 367.09 C 746.42 369.71 740.07 372.05 733.55 373.77 C 739.04 374.28 744.56 373.98 750.07 374.07 C 749.57 376.13 749.10 378.19 748.66 380.27 C 741.46 380.36 734.26 380.36 727.06 380.32 C 728.40 369.81 732.43 359.96 736.95 350.47 C 741.60 344.33 746.79 338.52 752.93 333.84 Z" />
<path fill="#521cf2" opacity="1.00" d=" M 668.99 348.03 C 666.89 343.35 668.20 337.83 671.29 333.91 C 673.23 334.81 675.19 335.72 677.16 336.62 C 675.55 338.69 673.82 341.11 674.31 343.89 C 675.00 347.48 677.80 350.18 680.58 352.34 C 689.08 358.59 699.03 362.43 708.93 365.85 C 710.26 368.31 711.48 370.83 712.55 373.42 C 703.34 370.98 694.40 367.45 685.93 363.10 C 679.29 359.49 672.16 355.25 668.99 348.03 Z" />
<path fill="#521cf2" opacity="1.00" d=" M 644.84 373.99 C 652.48 374.01 660.12 374.00 667.76 374.00 C 667.76 376.09 667.69 378.18 667.57 380.27 C 661.18 380.31 654.79 380.26 648.41 380.30 C 647.41 378.09 646.24 375.97 644.84 373.99 Z" />
<path fill="#521cf2" opacity="1.00" d=" M 682.26 374.00 C 692.42 373.88 702.59 374.23 712.75 373.90 C 713.44 376.00 713.96 378.15 714.48 380.31 C 704.85 380.25 695.22 380.32 685.59 380.27 C 684.51 378.15 683.40 376.07 682.26 374.00 Z" />
<path fill="#521cf2" opacity="1.00" d=" M 770.25 373.99 C 774.53 374.01 778.80 374.00 783.08 374.00 C 783.04 376.10 783.08 378.20 783.19 380.31 C 778.14 380.25 773.09 380.31 768.04 380.27 C 768.52 378.09 769.26 375.99 770.25 373.99 Z" />
<path fill="#521cf2" opacity="1.00" d=" M 814.68 396.64 C 816.88 395.31 818.97 393.80 820.98 392.18 C 820.92 397.16 820.96 402.14 820.95 407.12 C 815.75 407.12 810.56 407.11 805.37 407.13 C 805.37 408.77 805.36 410.42 805.37 412.08 C 803.26 411.79 801.17 411.51 799.09 411.21 C 799.10 409.83 799.10 408.46 799.13 407.10 C 795.55 407.08 791.98 407.12 788.42 407.07 C 785.20 405.31 782.18 403.22 779.39 400.85 C 791.15 400.82 802.91 400.83 814.67 400.81 C 814.66 399.41 814.67 398.03 814.68 396.64 Z" />
<path fill="#521cf2" opacity="1.00" d=" M 644.46 400.82 C 648.93 400.84 653.41 400.83 657.90 400.84 C 657.05 402.91 656.22 404.99 655.41 407.09 C 652.91 407.09 650.40 407.09 647.91 407.10 C 647.86 415.87 647.97 424.63 647.85 433.40 C 646.05 440.91 645.27 448.61 644.30 456.26 C 643.99 459.05 643.01 461.68 641.78 464.19 C 641.56 445.13 641.89 426.07 641.61 407.02 C 642.35 404.86 643.41 402.83 644.46 400.82 Z" />
<path fill="#521cf2" opacity="1.00" d=" M 686.25 400.84 C 693.67 400.82 701.08 400.84 708.49 400.83 C 706.73 402.90 704.98 404.98 703.28 407.10 C 696.44 407.11 689.60 407.11 682.77 407.10 C 683.99 405.05 685.15 402.96 686.25 400.84 Z" />
<path fill="#521cf2" opacity="1.00" d=" M 728.58 400.83 C 737.09 400.85 745.60 400.80 754.12 400.86 C 760.89 406.67 770.32 403.96 778.10 407.02 C 762.53 407.22 746.97 407.05 731.41 407.11 C 730.39 405.05 729.45 402.95 728.58 400.83 Z" />
<path fill="#521cf2" opacity="1.00" d=" M 799.02 418.35 C 801.16 419.92 803.28 421.55 805.38 423.20 C 805.37 430.27 805.39 437.34 805.36 444.40 C 803.26 443.21 801.15 442.03 799.04 440.87 C 798.95 433.36 799.00 425.85 799.02 418.35 Z" />
<path fill="#521cf2" opacity="1.00" d=" M 726.20 460.76 C 741.00 452.14 755.97 443.80 770.94 435.48 C 770.48 439.00 770.04 442.53 769.69 446.07 C 755.21 451.01 740.75 456.03 726.20 460.76 Z" />
<path fill="#521cf2" opacity="1.00" d=" M 675.77 435.42 C 690.65 443.81 705.56 452.14 720.39 460.62 C 705.83 456.16 691.49 450.90 677.02 446.11 C 676.59 442.55 676.17 438.98 675.77 435.42 Z" />
<path fill="#521cf2" opacity="1.00" d=" M 799.04 453.93 C 801.13 452.49 803.23 451.08 805.36 449.70 C 805.39 458.47 805.38 467.24 805.37 476.01 C 803.16 477.98 801.06 480.06 799.02 482.20 C 799.00 472.78 798.95 463.35 799.04 453.93 Z" />
<path fill="#521cf2" opacity="1.00" d=" M 641.68 477.60 C 645.14 474.53 647.07 470.18 647.90 465.71 C 647.93 476.95 647.91 488.20 647.91 499.45 C 645.85 500.29 643.76 501.07 641.67 501.80 C 641.66 493.73 641.64 485.66 641.68 477.60 Z" />
<path fill="#521cf2" opacity="1.00" d=" M 528.28 519.69 C 532.91 519.65 537.54 519.65 542.18 519.68 C 542.01 521.76 541.87 523.85 541.78 525.94 C 537.14 525.96 532.51 525.94 527.87 525.96 C 527.99 523.87 528.13 521.77 528.28 519.69 Z" />
<path fill="#521cf2" opacity="1.00" d=" M 621.53 519.68 C 627.29 519.66 633.04 519.64 638.80 519.69 C 639.42 521.76 640.00 523.85 640.53 525.96 C 635.28 525.93 630.03 525.97 624.78 525.93 C 623.80 523.79 622.72 521.70 621.53 519.68 Z" />
<path fill="#521cf2" opacity="1.00" d=" M 799.02 519.89 C 802.97 521.43 806.75 523.41 810.16 525.93 C 806.44 525.95 802.71 525.95 799.00 525.96 C 798.99 523.93 798.99 521.91 799.02 519.89 Z" />
<path fill="#521cf2" opacity="1.00" d=" M 896.03 519.69 C 903.50 519.65 910.97 519.65 918.45 519.69 C 919.88 521.74 921.27 523.83 922.62 525.96 C 915.09 525.93 907.56 525.97 900.03 525.94 C 898.73 523.83 897.38 521.75 896.03 519.69 Z" />
</g>
<g id="#f5a141ff">
<path fill="#f5a141" opacity="1.00" d=" M 776.62 335.04 C 778.08 337.81 779.34 340.88 778.98 344.08 C 778.51 348.85 775.41 352.85 771.92 355.91 C 766.25 360.80 759.46 364.14 752.64 367.09 C 753.93 364.08 755.42 361.16 756.93 358.25 C 762.26 355.44 767.80 352.34 771.34 347.31 C 773.07 344.96 773.15 341.79 771.80 339.26 C 773.39 337.83 775.00 336.43 776.62 335.04 Z" />
<path fill="#f5a141" opacity="1.00" d=" M 667.76 374.00 C 672.59 374.00 677.42 374.00 682.26 374.00 C 683.40 376.07 684.51 378.15 685.59 380.27 C 679.58 380.26 673.58 380.25 667.57 380.27 C 667.69 378.18 667.76 376.09 667.76 374.00 Z" />
<path fill="#f5a141" opacity="1.00" d=" M 750.07 374.07 C 756.80 373.99 763.52 374.00 770.25 373.99 C 769.26 375.99 768.52 378.09 768.04 380.27 C 761.58 380.26 755.12 380.25 748.66 380.27 C 749.10 378.19 749.57 376.13 750.07 374.07 Z" />
<path fill="#f5a141" opacity="1.00" d=" M 657.90 400.84 C 667.35 400.85 676.80 400.84 686.25 400.84 C 685.15 402.96 683.99 405.05 682.77 407.10 C 673.65 407.07 664.53 407.10 655.41 407.09 C 656.22 404.99 657.05 402.91 657.90 400.84 Z" />
<path fill="#f5a141" opacity="1.00" d=" M 754.12 400.86 C 762.54 400.83 770.96 400.84 779.39 400.85 C 782.18 403.22 785.20 405.31 788.42 407.07 C 784.97 407.07 781.53 407.14 778.10 407.02 C 770.32 403.96 760.89 406.67 754.12 400.86 Z" />
<path fill="#f5a141" opacity="1.00" d=" M 799.09 411.21 C 801.17 411.51 803.26 411.79 805.37 412.08 C 805.37 415.79 805.37 419.49 805.38 423.20 C 803.28 421.55 801.16 419.92 799.02 418.35 C 799.02 415.96 799.03 413.58 799.09 411.21 Z" />
<path fill="#f5a141" opacity="1.00" d=" M 726.97 458.47 C 738.71 448.08 751.04 438.37 763.00 428.22 C 762.63 430.77 762.23 433.31 761.82 435.85 C 750.24 443.44 738.72 451.15 726.97 458.47 Z" />
<path fill="#f5a141" opacity="1.00" d=" M 683.66 428.22 C 695.67 438.09 707.47 448.19 719.55 457.98 C 718.66 457.74 717.84 457.39 717.08 456.94 C 706.38 449.95 695.68 442.94 684.95 435.99 C 684.45 433.41 684.04 430.81 683.66 428.22 Z" />
<path fill="#f5a141" opacity="1.00" d=" M 644.30 456.26 C 645.27 448.61 646.05 440.91 647.85 433.40 C 647.95 444.17 647.89 454.94 647.90 465.71 C 647.07 470.18 645.14 474.53 641.68 477.60 C 641.69 473.13 641.56 468.65 641.78 464.19 C 643.01 461.68 643.99 459.05 644.30 456.26 Z" />
<path fill="#f5a141" opacity="1.00" d=" M 799.02 482.20 C 801.06 480.06 803.16 477.98 805.37 476.01 C 805.38 490.60 805.37 505.18 805.37 519.77 C 835.59 519.62 865.81 519.76 896.03 519.69 C 897.38 521.75 898.73 523.83 900.03 525.94 C 870.08 525.92 840.12 525.93 810.16 525.93 C 806.75 523.41 802.97 521.43 799.02 519.89 C 799.06 507.33 799.06 494.76 799.02 482.20 Z" />
<path fill="#f5a141" opacity="1.00" d=" M 542.18 519.68 C 568.63 519.71 595.08 519.72 621.53 519.68 C 622.72 521.70 623.80 523.79 624.78 525.93 C 597.12 525.93 569.45 525.92 541.78 525.94 C 541.87 523.85 542.01 521.76 542.18 519.68 Z" />
</g>
<g id="#ffffffff">
<path fill="#ffffff" opacity="1.00" d=" M 762.94 467.96 C 762.31 465.94 763.94 462.82 766.31 463.49 C 767.77 465.47 765.23 468.45 762.94 467.96 Z" />
<path fill="#ffffff" opacity="1.00" d=" M 689.02 466.07 C 689.49 466.13 690.44 466.24 690.91 466.30 C 694.03 468.69 696.03 472.15 698.07 475.44 C 698.40 474.36 698.74 473.29 699.14 472.25 C 699.84 471.19 700.58 470.16 701.36 469.17 C 701.82 469.26 702.73 469.45 703.19 469.54 C 703.55 469.67 704.27 469.93 704.63 470.06 C 704.69 470.42 704.82 471.14 704.88 471.50 C 702.34 473.08 700.60 475.53 699.40 478.23 C 699.20 478.66 698.80 479.53 698.59 479.96 C 697.94 478.87 697.29 477.77 696.61 476.72 C 694.28 473.24 691.18 470.39 688.07 467.63 C 688.31 467.24 688.78 466.46 689.02 466.07 Z" />
<path fill="#ffffff" opacity="1.00" d=" M 762.26 470.43 C 763.60 470.09 764.96 469.76 766.33 469.43 C 765.21 473.06 765.41 477.57 762.22 480.20 C 760.84 481.66 758.33 481.37 757.26 483.16 C 755.24 486.49 751.83 488.52 748.89 490.92 C 748.53 490.24 747.80 488.88 747.44 488.19 C 749.44 486.63 751.38 485.00 753.36 483.40 C 751.61 483.38 749.36 483.04 748.92 481.00 C 748.11 476.31 752.07 470.90 757.01 471.08 C 759.73 471.57 759.62 474.92 759.46 477.05 C 762.22 476.61 761.30 472.50 762.26 470.43 M 752.49 478.59 C 753.56 478.82 754.63 478.77 755.72 478.45 C 755.63 477.44 755.56 476.44 755.50 475.44 C 753.56 475.05 752.35 476.81 752.49 478.59 Z" />
<path fill="#ffffff" opacity="1.00" d=" M 708.13 473.08 C 708.54 473.33 709.38 473.82 709.79 474.06 C 710.68 474.63 711.56 475.22 712.45 475.81 C 707.15 480.34 703.24 486.34 701.12 492.97 C 700.93 492.90 700.57 492.77 700.38 492.70 C 698.53 488.84 695.64 485.55 692.06 483.21 C 692.22 481.73 693.23 480.53 693.93 479.29 C 694.36 479.70 694.79 480.11 695.22 480.55 C 697.10 482.77 698.64 485.25 700.11 487.76 C 700.30 487.09 700.68 485.76 700.87 485.09 C 702.34 480.59 705.08 476.65 708.13 473.08 Z" />
<path fill="#ffffff" opacity="1.00" d=" M 685.11 478.92 C 684.72 477.49 685.87 475.31 687.58 476.01 C 689.22 476.48 690.85 476.97 692.49 477.48 C 691.42 479.22 690.75 481.78 688.21 481.62 C 689.43 489.15 690.48 496.71 691.91 504.21 C 699.27 506.32 706.66 508.34 714.07 510.30 L 714.06 509.59 C 714.09 503.85 713.28 498.12 713.57 492.39 C 714.21 491.95 715.48 491.08 716.12 490.65 C 716.25 497.44 716.67 504.23 716.75 511.02 C 716.96 512.38 715.93 513.31 715.16 514.25 C 707.76 512.14 700.31 510.21 692.89 508.16 C 690.80 507.40 689.43 505.29 689.17 503.14 C 687.84 495.06 686.31 487.01 685.11 478.92 Z" />
<path fill="#ffffff" opacity="1.00" d=" M 704.63 493.29 C 707.06 487.47 710.29 481.82 714.88 477.43 L 715.57 476.85 L 715.62 477.68 C 715.81 481.09 715.89 484.51 715.96 487.94 C 709.21 492.21 704.58 499.34 702.99 507.12 C 702.72 506.75 702.19 506.00 701.92 505.63 C 699.96 502.35 697.54 499.34 694.53 496.96 C 693.79 496.35 693.03 495.76 692.30 495.17 C 692.55 494.78 693.04 493.98 693.29 493.58 C 693.71 492.97 694.56 491.75 694.99 491.14 C 695.24 491.48 695.76 492.15 696.02 492.49 C 698.19 495.35 700.17 498.37 701.75 501.61 C 702.06 500.65 702.37 499.69 702.70 498.75 C 703.30 496.91 703.91 495.08 704.63 493.29 Z" />
<path fill="#ffffff" opacity="1.00" d=" M 741.62 481.74 C 742.73 480.49 743.85 479.25 745.00 478.03 C 746.17 479.99 747.27 482.31 746.56 484.65 C 745.51 488.00 742.60 490.23 740.35 492.77 C 739.86 492.23 738.86 491.17 738.36 490.64 C 739.89 488.38 742.37 486.75 743.16 484.03 C 742.78 483.46 742.00 482.31 741.62 481.74 Z" />
<path fill="#ffffff" opacity="1.00" d=" M 758.38 484.25 C 759.62 483.94 760.87 483.64 762.14 483.35 C 761.07 488.17 760.02 492.99 758.94 497.80 C 758.10 497.99 756.43 498.36 755.59 498.54 C 756.50 493.77 757.49 489.02 758.38 484.25 Z" />
<path fill="#ffffff" opacity="1.00" d=" M 734.45 490.50 C 736.69 489.61 736.60 493.48 734.54 493.66 C 732.41 494.09 732.67 490.81 734.45 490.50 Z" />
<path fill="#ffffff" opacity="1.00" d=" M 738.10 500.07 C 736.61 496.08 740.92 491.55 744.99 492.39 C 747.48 493.85 747.48 497.57 746.79 500.03 C 744.65 503.09 741.71 505.40 738.67 507.49 C 738.28 507.01 737.51 506.04 737.12 505.55 C 738.73 504.23 740.35 502.93 742.05 501.71 C 740.66 501.47 738.74 501.67 738.10 500.07 M 742.22 495.47 C 740.77 495.62 740.07 498.13 741.88 498.37 C 744.24 499.10 744.57 494.97 742.22 495.47 Z" />
<path fill="#ffffff" opacity="1.00" d=" M 749.32 496.34 C 750.40 495.37 751.51 494.43 752.65 493.51 C 756.05 498.40 751.07 502.91 747.31 505.51 C 746.97 505.00 746.30 503.98 745.97 503.47 C 747.60 502.07 749.15 500.55 750.54 498.91 C 750.12 498.04 749.71 497.19 749.32 496.34 Z" />
<path fill="#ffffff" opacity="1.00" d=" M 733.20 495.43 C 734.02 495.24 735.67 494.87 736.50 494.68 C 736.48 497.99 736.71 502.78 732.50 503.63 C 729.56 503.80 726.80 504.73 723.99 505.52 C 723.96 504.70 723.90 503.06 723.87 502.24 C 724.63 502.06 726.15 501.70 726.91 501.52 C 726.76 499.95 725.77 498.69 725.06 497.36 C 726.02 496.65 726.99 495.95 727.97 495.26 C 728.94 496.93 729.84 498.67 730.95 500.28 C 734.02 501.24 732.86 497.16 733.20 495.43 Z" />
</g>
<g id="#830037ff">
<path fill="#830037" opacity="1.00" d=" M 690.91 466.30 C 695.09 465.44 696.93 469.62 699.14 472.25 C 698.74 473.29 698.40 474.36 698.07 475.44 C 696.03 472.15 694.03 468.69 690.91 466.30 Z" />
<path fill="#830037" opacity="1.00" d=" M 692.49 477.48 C 692.82 477.59 693.48 477.81 693.81 477.92 C 693.84 478.27 693.90 478.95 693.93 479.29 C 693.23 480.53 692.22 481.73 692.06 483.21 C 691.62 486.72 692.67 490.16 693.29 493.58 C 693.04 493.98 692.55 494.78 692.30 495.17 C 693.03 495.76 693.79 496.35 694.53 496.96 C 694.39 499.00 694.19 501.07 694.58 503.10 C 696.19 505.48 699.33 505.59 701.92 505.63 C 702.19 506.00 702.72 506.75 702.99 507.12 C 704.58 499.34 709.21 492.21 715.96 487.94 C 715.89 484.51 715.81 481.09 715.62 477.68 C 716.33 477.60 717.75 477.43 718.46 477.34 C 719.35 482.92 717.57 488.71 719.40 494.09 C 719.44 500.40 719.76 506.72 719.54 513.03 C 719.80 515.34 716.85 515.82 715.20 515.20 C 708.82 513.22 702.35 511.60 695.90 509.89 C 694.74 509.60 693.81 508.87 692.89 508.16 C 700.31 510.21 707.76 512.14 715.16 514.25 C 715.93 513.31 716.96 512.38 716.75 511.02 C 716.67 504.23 716.25 497.44 716.12 490.65 C 715.48 491.08 714.21 491.95 713.57 492.39 C 711.02 497.26 706.64 501.68 707.17 507.60 C 709.45 508.30 711.74 508.98 714.06 509.59 L 714.07 510.30 C 706.66 508.34 699.27 506.32 691.91 504.21 C 690.48 496.71 689.43 489.15 688.21 481.62 C 690.75 481.78 691.42 479.22 692.49 477.48 Z" />
</g>
<g id="#c90d5dff">
<path fill="#c90d5d" opacity="1.00" d=" M 703.19 469.54 C 705.14 467.33 707.36 469.76 708.88 471.03 C 710.11 472.32 712.32 472.55 712.94 474.44 C 712.15 474.35 710.58 474.16 709.79 474.06 C 709.38 473.82 708.54 473.33 708.13 473.08 C 705.08 476.65 702.34 480.59 700.87 485.09 C 699.74 483.59 698.59 482.11 697.42 480.65 C 696.87 480.62 695.77 480.57 695.22 480.55 C 694.79 480.11 694.36 479.70 693.93 479.29 C 693.90 478.95 693.84 478.27 693.81 477.92 C 693.48 477.81 692.82 477.59 692.49 477.48 C 690.85 476.97 689.22 476.48 687.58 476.01 C 690.36 474.13 693.60 476.67 696.61 476.72 C 697.29 477.77 697.94 478.87 698.59 479.96 C 698.80 479.53 699.20 478.66 699.40 478.23 C 699.81 478.71 700.62 479.67 701.03 480.15 C 703.01 477.17 705.16 474.30 707.58 471.67 C 706.63 471.05 705.65 470.52 704.63 470.06 C 704.27 469.93 703.55 469.67 703.19 469.54 Z" />
</g>
<g id="#7f0036ff">
<path fill="#7f0036" opacity="1.00" d=" M 704.63 470.06 C 705.65 470.52 706.63 471.05 707.58 471.67 C 705.16 474.30 703.01 477.17 701.03 480.15 C 700.62 479.67 699.81 478.71 699.40 478.23 C 700.60 475.53 702.34 473.08 704.88 471.50 C 704.82 471.14 704.69 470.42 704.63 470.06 Z" />
<path fill="#7f0036" opacity="1.00" d=" M 709.79 474.06 C 710.58 474.16 712.15 474.35 712.94 474.44 C 714.47 474.46 714.67 476.28 714.88 477.43 C 710.29 481.82 707.06 487.47 704.63 493.29 C 703.41 493.62 702.24 493.52 701.12 492.97 C 703.24 486.34 707.15 480.34 712.45 475.81 C 711.56 475.22 710.68 474.63 709.79 474.06 Z" />
<path fill="#7f0036" opacity="1.00" d=" M 695.22 480.55 C 695.77 480.57 696.87 480.62 697.42 480.65 C 698.59 482.11 699.74 483.59 700.87 485.09 C 700.68 485.76 700.30 487.09 700.11 487.76 C 698.64 485.25 697.10 482.77 695.22 480.55 Z" />
<path fill="#7f0036" opacity="1.00" d=" M 696.02 492.49 C 696.67 492.44 697.97 492.34 698.62 492.30 C 700.24 494.26 701.64 496.41 702.70 498.75 C 702.37 499.69 702.06 500.65 701.75 501.61 C 700.17 498.37 698.19 495.35 696.02 492.49 Z" />
</g>
<g id="#fb006aff">
<path fill="#fb006a" opacity="1.00" d=" M 693.29 493.58 C 692.67 490.16 691.62 486.72 692.06 483.21 C 695.64 485.55 698.53 488.84 700.38 492.70 C 700.57 492.77 700.93 492.90 701.12 492.97 C 702.24 493.52 703.41 493.62 704.63 493.29 C 703.91 495.08 703.30 496.91 702.70 498.75 C 701.64 496.41 700.24 494.26 698.62 492.30 C 697.97 492.34 696.67 492.44 696.02 492.49 C 695.76 492.15 695.24 491.48 694.99 491.14 C 694.56 491.75 693.71 492.97 693.29 493.58 Z" />
</g>
<g id="#fd006bff">
<path fill="#fd006b" opacity="1.00" d=" M 694.58 503.10 C 694.19 501.07 694.39 499.00 694.53 496.96 C 697.54 499.34 699.96 502.35 701.92 505.63 C 699.33 505.59 696.19 505.48 694.58 503.10 Z" />
</g>
</svg>
