<?xml version="1.0" encoding="UTF-8" ?>
<!DOCTYPE svg PUBLIC "-//W3C//DTD SVG 1.1//EN" "http://www.w3.org/Graphics/SVG/1.1/DTD/svg11.dtd">
<svg width="1446pt" height="785pt" viewBox="0 0 1446 785" version="1.1" xmlns="http://www.w3.org/2000/svg">
<g id="#fe006cfe">
<path fill="#fe006c" opacity="1.00" d=" M 665.39 187.49 C 669.06 186.34 670.58 192.25 666.82 192.97 C 663.40 194.24 661.76 188.08 665.39 187.49 Z" />
</g>
<g id="#ff006cff">
<path fill="#ff006c" opacity="1.00" d=" M 642.17 191.29 C 644.38 191.29 646.60 191.29 648.83 191.29 C 648.86 197.82 648.75 204.35 648.93 210.88 C 650.50 210.85 652.09 210.82 653.68 210.79 C 653.77 208.35 653.87 205.91 653.91 203.46 C 655.91 203.46 657.92 203.45 659.94 203.44 C 659.97 205.91 660.05 208.38 660.17 210.85 C 660.83 210.84 662.15 210.81 662.81 210.79 C 662.90 208.33 663.01 205.87 663.05 203.40 C 665.01 203.41 666.97 203.41 668.94 203.40 C 668.97 205.88 669.06 208.36 669.17 210.85 C 669.83 210.84 671.15 210.81 671.81 210.80 C 671.91 208.33 672.01 205.87 672.05 203.40 C 674.01 203.41 675.98 203.41 677.96 203.41 C 678.01 205.88 678.10 208.35 678.24 210.82 C 680.25 210.90 682.26 210.94 684.28 210.96 C 684.45 207.75 684.47 204.54 684.48 201.33 C 686.67 201.33 688.87 201.33 691.08 201.33 C 691.13 204.45 690.94 207.58 691.40 210.67 C 693.36 211.01 695.36 210.94 697.35 211.00 C 697.49 208.40 697.63 205.80 697.63 203.19 C 699.64 203.20 701.66 203.21 703.69 203.21 C 704.06 206.14 702.50 210.51 706.26 211.72 C 706.65 208.88 706.74 206.01 706.79 203.16 C 708.76 203.16 710.75 203.16 712.73 203.16 C 712.74 205.60 712.77 208.04 712.83 210.48 C 714.94 211.43 716.89 210.22 717.77 208.24 C 716.84 207.45 715.92 206.67 715.00 205.89 C 715.70 203.52 716.39 201.15 717.12 198.79 C 722.09 200.58 725.95 205.76 724.31 211.16 C 722.89 217.39 715.42 219.99 709.95 217.25 C 706.96 218.52 703.73 218.63 700.76 217.25 C 696.62 218.73 692.09 218.69 687.95 217.27 C 683.81 218.70 679.29 218.72 675.16 217.25 C 672.22 218.51 669.05 218.57 666.11 217.28 C 663.15 218.57 659.94 218.58 656.99 217.27 C 652.20 218.96 644.67 219.36 642.61 213.57 C 641.58 206.22 642.44 198.71 642.17 191.29 Z" />
<path fill="#ff006c" opacity="1.00" d=" M 682.33 193.15 C 685.74 190.88 689.10 196.73 685.32 198.41 C 682.02 200.27 678.94 194.93 682.33 193.15 Z" />
<path fill="#ff006c" opacity="1.00" d=" M 690.36 193.37 C 693.34 190.61 697.62 196.02 694.03 198.15 C 691.06 200.40 687.40 195.67 690.36 193.37 Z" />
<path fill="#ff006c" opacity="1.00" d=" M 660.32 194.20 C 663.48 191.96 666.61 197.58 663.21 199.18 C 660.14 201.05 657.20 196.05 660.32 194.20 Z" />
<path fill="#ff006c" opacity="1.00" d=" M 668.43 194.46 C 671.11 191.71 675.20 197.13 671.87 198.97 C 669.13 201.25 665.42 196.57 668.43 194.46 Z" />
<path fill="#ff006c" opacity="1.00" d=" M 624.45 195.48 C 627.09 192.49 631.82 197.16 628.80 199.81 C 626.16 202.67 621.44 198.11 624.45 195.48 Z" />
<path fill="#ff006c" opacity="1.00" d=" M 755.24 198.00 C 757.36 200.12 759.63 202.11 761.48 204.49 C 764.69 208.46 763.56 215.57 758.64 217.61 C 755.56 218.71 752.21 218.26 749.01 218.37 C 748.99 215.94 748.99 213.52 749.00 211.10 C 751.68 210.99 754.62 211.31 756.91 209.59 C 754.99 207.36 752.89 205.30 750.79 203.26 C 752.27 201.51 753.75 199.76 755.24 198.00 Z" />
<path fill="#ff006c" opacity="1.00" d=" M 727.43 207.39 C 728.16 200.09 738.74 196.98 743.18 202.85 C 745.93 207.04 746.76 212.27 746.75 217.21 C 742.40 222.97 736.84 227.41 730.36 230.59 C 729.17 228.69 727.99 226.80 726.81 224.90 C 730.12 222.88 733.41 220.81 736.68 218.72 C 731.14 218.11 726.05 213.28 727.43 207.39 M 734.42 206.40 C 731.60 210.07 736.63 211.89 739.62 211.41 C 739.41 208.77 737.86 204.41 734.42 206.40 Z" />
<path fill="#ff006c" opacity="1.00" d=" M 629.35 207.50 C 631.16 206.04 632.96 204.57 634.79 203.13 C 638.56 208.17 640.40 215.76 636.03 221.03 C 631.32 227.54 620.09 226.83 616.27 219.76 C 613.25 214.61 615.14 208.30 618.36 203.73 C 620.18 205.01 621.99 206.31 623.80 207.62 C 620.62 211.17 620.97 218.56 626.98 218.30 C 632.80 217.88 632.56 210.85 629.35 207.50 Z" />
</g>
<g id="#000000fe">
<path fill="#000000" opacity="1.00" d=" M 859.98 195.59 C 862.53 195.56 865.08 195.54 867.64 195.72 C 865.78 198.96 862.04 198.60 858.87 198.52 C 859.15 197.79 859.70 196.32 859.98 195.59 Z" />
<path fill="#000000" opacity="1.00" d=" M 860.52 200.30 C 862.00 200.30 863.49 200.31 864.99 200.31 C 864.98 206.32 864.98 212.32 864.98 218.33 C 863.48 218.33 861.99 218.33 860.52 218.33 C 860.47 212.32 860.47 206.31 860.52 200.30 Z" />
<path fill="#000000" opacity="1.00" d=" M 820.87 220.71 C 822.15 220.86 823.44 221.05 824.73 221.25 C 827.18 220.17 829.08 221.01 828.77 223.88 C 826.21 223.76 823.65 223.70 821.10 223.75 C 821.04 222.99 820.93 221.47 820.87 220.71 Z" />
<path fill="#000000" opacity="1.00" d=" M 889.77 224.53 C 886.32 224.67 885.48 222.47 887.43 219.84 C 888.07 220.16 889.37 220.79 890.01 221.10 C 889.95 221.96 889.83 223.67 889.77 224.53 Z" />
<path fill="#000000" opacity="1.00" d=" M 621.00 261.51 C 617.53 261.13 619.66 257.99 621.02 256.39 C 622.28 258.04 624.44 261.07 621.00 261.51 Z" />
<path fill="#000000" opacity="1.00" d=" M 609.54 276.56 C 612.56 277.52 612.12 279.68 610.43 281.83 C 609.74 280.79 608.91 279.90 607.93 279.16 C 608.33 278.51 609.14 277.21 609.54 276.56 Z" />
</g>
<g id="#000000ff">
<path fill="#000000" opacity="1.00" d=" M 588.30 200.29 C 589.78 200.28 591.27 200.27 592.76 200.26 C 592.81 206.28 592.80 212.30 592.79 218.33 C 591.28 218.31 589.78 218.31 588.28 218.31 C 588.29 212.30 588.28 206.30 588.30 200.29 Z" />
<path fill="#000000" opacity="1.00" d=" M 787.12 202.56 C 790.27 201.66 793.41 200.71 796.57 199.81 C 796.95 201.16 797.36 202.52 797.77 203.88 C 795.69 204.55 793.62 205.21 791.56 205.88 C 793.48 208.76 796.58 212.55 793.98 216.00 C 790.86 219.69 785.23 218.26 781.00 218.10 C 776.81 217.51 778.12 212.03 775.23 209.90 C 774.93 212.70 774.84 215.52 774.80 218.35 C 773.27 218.32 771.75 218.30 770.23 218.30 C 770.32 213.94 769.07 206.81 775.04 205.86 C 779.76 204.76 782.02 209.57 782.42 213.42 C 785.22 213.41 788.03 213.35 790.85 213.23 C 788.50 210.08 785.30 206.80 787.12 202.56 Z" />
<path fill="#000000" opacity="1.00" d=" M 831.67 201.84 C 831.57 199.60 834.57 200.51 835.94 199.97 C 836.50 204.65 834.66 210.03 837.50 214.14 C 838.58 210.52 839.92 204.89 844.98 205.83 C 849.39 205.97 850.21 210.92 849.73 214.39 C 851.12 213.89 852.54 213.40 853.97 212.93 C 854.00 210.94 854.05 208.96 854.10 206.97 C 855.59 207.00 857.09 207.03 858.61 207.04 C 859.31 212.29 858.50 219.13 851.62 218.77 C 850.91 220.82 850.20 222.87 849.46 224.92 C 845.22 224.17 841.39 222.11 838.77 218.67 C 829.13 219.20 831.64 208.07 831.67 201.84 M 841.62 213.52 C 843.36 213.07 845.09 212.57 846.82 212.02 C 844.96 208.59 842.49 210.80 841.62 213.52 M 847.25 216.47 C 845.55 215.96 843.98 218.83 846.06 219.37 C 847.74 219.95 849.23 216.98 847.25 216.47 Z" />
<path fill="#000000" opacity="1.00" d=" M 558.15 207.03 C 559.45 206.40 560.74 205.75 562.04 205.09 C 563.43 207.82 564.81 210.55 566.20 213.29 C 568.07 213.33 569.94 213.36 571.82 213.38 C 571.88 211.25 571.94 209.12 572.01 206.99 C 573.46 206.99 574.91 207.00 576.38 207.00 C 576.05 210.73 577.71 216.68 572.90 218.05 C 567.35 218.69 561.74 217.77 556.17 218.35 C 556.16 216.74 556.15 215.14 556.12 213.53 C 557.65 213.41 559.17 213.29 560.71 213.17 C 559.87 211.11 559.02 209.07 558.15 207.03 Z" />
<path fill="#000000" opacity="1.00" d=" M 595.86 208.03 C 596.86 206.95 597.86 205.85 598.85 204.75 C 601.41 207.45 605.33 210.51 603.77 214.75 C 602.68 218.77 597.84 218.24 594.61 218.54 C 594.56 216.90 594.52 215.26 594.48 213.61 C 596.27 213.43 598.05 213.25 599.85 213.06 C 598.53 211.37 597.20 209.70 595.86 208.03 Z" />
<path fill="#000000" opacity="1.00" d=" M 873.01 209.18 C 874.37 205.42 879.91 204.64 882.53 207.49 C 883.88 209.58 884.30 212.09 885.21 214.38 C 886.56 212.16 886.60 209.51 886.81 207.00 C 888.23 207.00 889.65 207.00 891.09 207.00 C 891.01 209.86 891.33 212.81 890.60 215.61 C 889.12 218.58 885.04 218.88 882.25 217.90 C 879.23 216.43 879.74 212.46 878.73 209.78 C 876.47 212.07 877.09 215.39 876.88 218.30 C 875.43 218.33 873.98 218.37 872.55 218.41 C 872.57 215.34 872.10 212.16 873.01 209.18 Z" />
<path fill="#000000" opacity="1.00" d=" M 824.44 207.01 C 825.93 207.01 827.41 207.00 828.92 206.98 C 828.84 209.80 829.15 212.69 828.46 215.46 C 827.06 218.82 822.83 218.13 819.90 218.55 C 818.81 224.18 812.47 228.20 807.27 224.78 C 802.05 221.71 803.71 214.99 806.19 210.65 C 807.44 211.39 808.70 212.11 809.97 212.82 C 807.88 216.18 807.56 221.09 812.65 221.52 C 813.29 220.80 814.56 219.35 815.19 218.62 C 813.79 218.47 812.41 218.31 811.03 218.16 C 811.77 216.58 812.51 215.00 813.27 213.42 C 816.95 213.42 820.65 213.41 824.35 213.36 C 824.38 211.24 824.41 209.13 824.44 207.01 Z" />
<path fill="#000000" opacity="1.00" d=" M 579.40 213.10 C 580.61 212.14 581.81 211.17 583.03 210.20 C 588.06 215.87 584.57 222.65 579.00 226.18 C 578.46 225.83 577.38 225.12 576.84 224.76 C 576.91 223.65 576.99 222.55 577.09 221.44 C 580.41 219.58 581.96 216.36 579.40 213.10 Z" />
<path fill="#000000" opacity="1.00" d=" M 568.50 224.77 C 567.65 221.92 570.21 218.33 572.20 221.98 C 571.83 223.74 569.75 223.91 568.50 224.77 Z" />
<path fill="#000000" opacity="1.00" d=" M 576.27 224.88 C 573.89 224.93 571.39 222.03 573.96 220.41 C 576.73 220.25 576.03 223.04 576.27 224.88 Z" />
<path fill="#000000" opacity="1.00" d=" M 628.45 259.18 C 631.58 258.19 634.73 257.22 637.89 256.29 C 638.22 257.70 638.58 259.11 638.96 260.52 C 636.90 261.13 634.83 261.75 632.78 262.37 C 636.22 265.74 638.18 273.32 631.87 274.67 C 620.02 275.00 608.10 274.12 596.24 274.95 C 596.20 273.35 596.17 271.75 596.13 270.15 C 597.66 270.02 599.20 269.90 600.75 269.78 C 599.90 267.72 599.11 265.63 598.21 263.60 C 599.50 262.98 600.78 262.33 602.07 261.68 C 604.09 265.19 605.12 270.63 610.22 270.40 C 610.33 268.09 610.43 265.80 610.53 263.50 C 611.94 263.53 613.36 263.54 614.79 263.54 C 614.86 265.69 614.95 267.85 615.06 270.01 C 616.23 269.95 617.41 269.88 618.59 269.82 C 618.63 267.74 618.66 265.66 618.71 263.58 C 620.12 263.56 621.54 263.55 622.97 263.54 C 623.04 265.69 623.12 267.84 623.23 269.99 C 626.23 269.97 629.24 269.87 632.24 269.57 C 630.75 267.58 629.18 265.66 627.59 263.76 C 627.88 262.23 628.17 260.71 628.45 259.18 Z" />
<path fill="#000000" opacity="1.00" d=" M 740.26 256.86 C 741.74 256.89 743.24 256.89 744.74 256.86 C 744.76 262.87 744.75 268.88 744.74 274.89 C 743.24 274.88 741.74 274.88 740.26 274.89 C 740.25 268.88 740.24 262.87 740.26 256.86 Z" />
<path fill="#000000" opacity="1.00" d=" M 747.76 269.81 C 748.94 268.77 750.11 267.73 751.30 266.69 C 752.67 269.45 754.92 272.48 753.68 275.70 C 752.29 278.74 749.41 280.69 747.06 282.94 C 746.08 281.77 745.11 280.62 744.14 279.48 C 746.03 277.70 747.85 275.85 749.70 274.04 C 749.05 272.62 748.40 271.21 747.76 269.81 Z" />
</g>
<g id="#000000e1">
<path fill="#000000" opacity="0.88" d=" M 853.58 204.62 C 853.88 202.76 854.82 201.18 856.57 200.34 C 856.99 201.01 857.83 202.35 858.25 203.02 C 857.91 203.55 857.23 204.60 856.89 205.13 C 856.06 205.01 854.41 204.75 853.58 204.62 Z" />
<path fill="#000000" opacity="0.88" d=" M 612.73 278.90 C 613.44 278.20 614.16 277.50 614.89 276.81 C 615.60 277.24 617.01 278.10 617.72 278.53 C 616.57 279.53 615.49 280.60 614.47 281.73 C 614.03 281.03 613.17 279.61 612.73 278.90 Z" />
</g>
<g id="#00000029">
<path fill="#000000" opacity="0.16" d=" M 841.62 213.52 C 842.49 210.80 844.96 208.59 846.82 212.02 C 845.09 212.57 843.36 213.07 841.62 213.52 Z" />
</g>
<g id="#00000033">
<path fill="#000000" opacity="0.20" d=" M 847.25 216.47 C 849.23 216.98 847.74 219.95 846.06 219.37 C 843.98 218.83 845.55 215.96 847.25 216.47 Z" />
</g>
<g id="#f5a142ff">
<path fill="#f5a142" opacity="1.00" d=" M 806.55 247.86 C 808.76 247.83 810.97 247.83 813.20 247.82 C 813.34 254.25 812.92 260.69 813.40 267.10 C 818.82 268.90 816.21 260.90 816.81 257.87 C 819.01 257.87 821.22 257.88 823.45 257.90 C 823.41 261.59 823.67 265.31 823.27 268.99 C 822.04 276.99 807.93 276.98 806.72 269.00 C 806.26 261.97 806.67 254.90 806.55 247.86 Z" />
<path fill="#f5a142" opacity="1.00" d=" M 827.37 247.83 C 829.59 247.83 831.81 247.83 834.04 247.83 C 834.05 256.85 834.06 265.86 834.04 274.87 C 831.81 274.87 829.59 274.87 827.37 274.87 C 827.38 265.86 827.38 256.85 827.37 247.83 Z" />
<path fill="#f5a142" opacity="1.00" d=" M 818.16 249.00 C 821.80 247.56 824.27 253.16 820.63 254.73 C 816.97 256.35 814.56 250.61 818.16 249.00 Z" />
<path fill="#f5a142" opacity="1.00" d=" M 838.56 259.80 C 840.04 258.05 841.53 256.31 843.03 254.57 C 845.27 256.80 847.71 258.88 849.57 261.46 C 852.45 265.53 851.12 272.40 846.20 274.24 C 843.17 275.23 839.91 274.79 836.79 274.91 C 836.79 272.48 836.78 270.06 836.79 267.64 C 839.41 267.60 842.04 267.39 844.66 267.10 C 843.29 264.16 840.87 261.98 838.56 259.80 Z" />
<path fill="#f5a142" opacity="1.00" d=" M 795.87 257.86 C 798.07 257.87 800.27 257.88 802.49 257.90 C 802.20 262.38 803.39 267.25 801.43 271.45 C 798.70 275.81 792.99 274.78 788.63 274.91 C 787.84 278.47 786.57 282.28 783.32 284.34 C 777.53 288.36 768.33 286.07 765.66 279.38 C 763.19 273.90 766.05 268.12 768.80 263.37 C 770.68 264.54 772.57 265.72 774.47 266.90 C 772.77 270.09 769.76 274.62 773.26 277.72 C 776.24 280.65 780.54 278.39 781.88 274.98 C 779.80 274.91 777.74 274.87 775.68 274.82 C 776.80 272.40 777.92 269.97 779.04 267.55 C 784.58 267.52 790.12 267.61 795.67 267.45 C 795.83 264.26 795.84 261.06 795.87 257.86 Z" />
<path fill="#f5a142" opacity="1.00" d=" M 792.31 278.20 C 795.91 277.09 797.38 282.99 793.71 283.63 C 790.34 284.55 789.08 279.15 792.31 278.20 Z" />
<path fill="#f5a142" opacity="1.00" d=" M 798.44 278.38 C 801.37 276.87 804.09 281.51 801.20 283.22 C 798.12 285.46 794.95 280.05 798.44 278.38 Z" />
</g>
<g id="#521cf2ff">
<path fill="#521cf2" opacity="1.00" d=" M 712.37 248.71 C 717.24 252.17 722.37 255.29 727.08 258.98 C 731.30 262.36 731.01 269.57 726.80 272.84 C 723.22 275.80 718.26 274.67 714.00 274.89 C 707.26 274.53 700.32 275.80 693.76 273.80 C 690.37 274.92 686.79 274.96 683.26 274.94 C 683.25 272.51 683.24 270.08 683.24 267.65 C 685.54 267.54 687.85 267.40 690.16 267.18 C 689.00 264.05 687.58 261.02 686.13 258.02 C 688.11 257.02 690.10 256.04 692.10 255.05 C 694.10 259.03 696.09 263.01 698.13 266.97 C 699.22 267.25 700.32 267.54 701.42 267.83 C 700.71 262.03 704.15 256.60 710.02 255.54 C 709.60 255.24 708.74 254.63 708.32 254.33 C 709.67 252.46 711.02 250.59 712.37 248.71 M 709.43 262.35 C 706.85 263.67 707.91 268.03 710.97 267.54 C 715.12 267.29 713.08 260.68 709.43 262.35 M 719.19 261.85 C 719.30 263.97 719.41 266.09 719.57 268.21 C 721.13 267.52 722.58 266.61 723.83 265.43 C 722.30 264.21 720.75 263.02 719.19 261.85 Z" />
<path fill="#521cf2" opacity="1.00" d=" M 648.88 261.73 C 650.65 255.77 659.27 254.11 663.38 258.62 C 665.76 260.89 665.61 264.39 665.93 267.41 C 668.58 267.49 671.24 267.49 673.89 267.38 C 673.94 264.21 673.97 261.04 673.95 257.87 C 676.17 257.88 678.39 257.89 680.62 257.91 C 680.27 263.51 682.64 272.28 675.48 274.46 C 670.64 274.89 664.42 276.27 660.62 272.38 C 657.58 269.67 661.06 262.59 655.50 263.05 C 655.17 266.98 655.24 270.93 655.24 274.87 C 652.95 274.87 650.66 274.88 648.38 274.89 C 648.53 270.51 647.88 266.03 648.88 261.73 Z" />
</g>
<g id="#521cf1fe">
<path fill="#521cf1" opacity="1.00" d=" M 670.36 278.18 C 673.55 277.22 675.62 282.15 672.38 283.48 C 669.02 285.07 666.78 279.38 670.36 278.18 Z" />
<path fill="#521cf1" opacity="1.00" d=" M 676.45 278.40 C 679.92 276.47 682.36 282.62 678.61 283.56 C 675.56 284.67 673.47 279.96 676.45 278.40 Z" />
</g>
</svg>
