<?xml version="1.0" encoding="UTF-8" ?>
<!DOCTYPE svg PUBLIC "-//W3C//DTD SVG 1.1//EN" "http://www.w3.org/Graphics/SVG/1.1/DTD/svg11.dtd">
<svg width="558pt" height="557pt" viewBox="0 0 558 557" version="1.1" xmlns="http://www.w3.org/2000/svg">
<g id="#040632ff">
<path fill="#040632" opacity="1.00" d=" M 237.43 26.63 C 239.89 25.98 242.44 25.75 244.99 25.80 C 254.64 25.86 264.30 25.82 273.96 25.81 C 284.96 26.56 295.83 28.74 306.46 31.66 C 309.97 32.59 313.27 34.34 316.91 34.75 C 324.67 35.21 332.52 34.09 340.21 35.61 C 355.25 37.42 369.86 41.72 384.04 46.96 C 396.82 50.23 409.81 53.23 421.72 59.10 C 434.02 63.92 445.04 71.43 455.51 79.38 C 461.39 84.82 466.85 90.70 472.61 96.27 C 488.20 113.95 498.03 135.87 504.94 158.20 C 517.13 181.78 524.96 207.65 527.42 234.11 C 529.42 243.03 531.69 251.94 532.46 261.09 C 533.64 266.66 532.67 272.41 533.87 277.99 C 535.24 287.36 532.90 296.64 533.15 306.00 C 529.04 352.24 511.58 397.26 483.07 433.92 C 479.57 437.81 476.60 442.18 472.63 445.64 C 469.69 448.11 468.08 451.82 464.94 454.08 C 459.89 457.57 456.35 462.77 451.23 466.19 C 440.19 475.73 427.34 482.84 414.46 489.56 C 381.74 509.45 344.18 521.13 306.05 524.19 C 293.70 524.10 281.34 524.29 268.99 524.10 C 261.40 522.64 253.67 523.30 246.00 523.18 C 222.44 521.35 199.14 515.00 178.26 503.84 C 171.48 500.85 165.34 496.70 159.08 492.79 C 150.07 486.29 140.98 479.75 133.32 471.65 C 129.31 468.70 125.63 465.35 122.81 461.21 C 116.97 455.34 111.14 449.37 106.60 442.40 C 100.41 438.79 96.05 432.98 90.86 428.18 C 86.91 424.71 84.19 420.15 80.35 416.58 C 69.61 403.60 59.69 389.74 52.51 374.43 C 41.99 354.53 36.16 332.37 33.85 310.05 C 33.72 299.67 33.96 289.27 33.77 278.89 C 32.72 272.26 31.44 265.64 30.84 258.94 C 30.82 248.64 30.81 238.33 30.84 228.03 C 33.61 198.73 45.76 170.36 65.21 148.26 C 69.00 142.77 74.64 138.94 78.56 133.59 C 86.73 119.87 96.24 106.81 107.90 95.84 C 110.31 93.55 112.16 90.77 114.12 88.11 C 119.84 80.79 127.12 74.85 135.09 70.12 C 140.67 66.86 145.23 62.21 150.56 58.60 C 153.57 56.85 156.99 55.87 159.79 53.75 C 167.89 48.75 176.75 45.16 185.49 41.46 C 196.49 36.32 208.24 33.13 219.94 30.08 C 225.75 28.82 231.69 28.24 237.43 26.63 M 229.36 33.42 C 215.50 36.70 201.46 40.01 188.60 46.32 C 179.29 49.99 169.97 53.91 161.68 59.59 C 153.91 62.14 148.60 68.63 141.83 72.87 C 135.01 77.12 128.08 81.56 123.00 87.91 C 120.68 90.92 118.01 93.64 115.26 96.25 C 103.13 107.74 92.95 121.22 84.68 135.71 C 83.19 137.75 84.34 140.12 86.10 141.52 C 75.87 150.93 67.12 161.85 59.71 173.60 C 58.44 175.97 56.80 178.13 55.68 180.59 C 55.44 181.09 54.96 182.09 54.72 182.60 C 54.46 183.09 53.95 184.09 53.69 184.59 C 53.46 185.10 52.99 186.11 52.75 186.62 C 52.22 187.57 51.68 188.51 51.13 189.45 C 51.07 189.98 50.95 191.03 50.89 191.56 C 50.57 192.06 49.92 193.06 49.60 193.56 C 49.29 194.54 48.98 195.52 48.68 196.51 C 48.33 197.50 47.99 198.50 47.67 199.50 C 47.32 200.50 46.99 201.50 46.67 202.50 C 46.33 203.50 45.99 204.50 45.64 205.50 C 45.06 207.16 45.05 208.99 44.16 210.55 C 44.06 211.51 43.95 212.48 43.85 213.45 C 42.36 215.20 43.68 217.85 42.09 219.55 C 41.73 221.86 42.74 224.61 41.08 226.55 C 40.88 236.69 41.08 246.83 40.97 256.96 C 41.08 258.51 40.62 260.34 41.91 261.56 C 42.25 263.86 41.29 266.58 42.89 268.55 C 43.09 270.54 42.63 272.70 43.72 274.51 C 44.00 275.74 44.22 276.98 44.58 278.20 C 43.59 282.39 44.09 286.72 44.00 290.98 C 44.08 297.77 43.81 304.58 44.16 311.37 C 45.33 313.51 44.94 316.03 45.18 318.37 C 46.18 320.21 46.00 322.35 46.23 324.37 C 46.93 326.40 47.09 328.56 47.74 330.61 C 47.92 331.54 48.08 332.48 48.24 333.43 C 48.68 335.15 49.35 336.81 49.70 338.56 C 49.86 339.03 50.17 339.97 50.33 340.44 C 50.71 341.76 51.00 343.11 51.29 344.47 C 51.74 345.80 52.19 347.14 52.64 348.48 C 53.21 350.21 53.93 351.89 54.78 353.52 C 54.88 354.02 55.07 355.03 55.17 355.53 C 55.68 356.48 56.19 357.44 56.69 358.40 C 58.85 364.79 62.49 370.54 65.33 376.64 C 73.26 390.27 82.31 403.37 93.13 414.85 C 96.08 419.17 100.18 422.48 103.75 426.25 C 106.45 428.83 108.77 432.19 112.64 433.06 L 112.77 433.30 C 114.13 434.94 115.43 436.65 116.68 438.39 C 117.77 440.83 120.17 442.27 121.63 444.46 C 124.82 449.43 130.19 452.56 133.36 457.55 C 134.14 458.80 135.20 459.86 136.45 460.64 C 141.08 463.52 143.94 468.46 148.54 471.40 C 154.96 476.71 161.54 481.84 168.59 486.29 C 171.67 487.85 174.33 490.10 177.36 491.76 C 178.44 492.24 179.52 492.77 180.61 493.27 C 181.93 493.95 183.27 494.63 184.61 495.29 C 185.54 495.76 186.47 496.24 187.40 496.72 C 187.90 496.97 188.89 497.46 189.39 497.70 C 190.47 498.23 191.53 498.78 192.61 499.32 C 193.86 499.80 195.13 500.22 196.38 500.72 C 198.01 501.47 199.72 502.07 201.43 502.65 C 201.93 502.95 202.94 503.56 203.45 503.87 C 203.96 503.95 204.98 504.10 205.49 504.18 C 206.82 504.75 208.17 505.25 209.51 505.81 C 210.00 505.90 210.98 506.10 211.47 506.20 C 213.03 507.12 215.00 506.85 216.54 507.84 C 217.51 507.94 218.48 508.05 219.46 508.16 C 221.00 509.16 222.99 508.83 224.54 509.83 C 226.21 510.10 228.17 509.63 229.55 510.89 C 231.54 511.18 233.91 510.40 235.55 511.92 C 237.85 512.00 240.14 511.99 242.44 512.08 C 242.85 512.30 243.67 512.73 244.08 512.94 C 250.72 513.08 257.37 512.98 264.02 512.99 C 283.13 511.18 302.39 508.84 320.69 502.70 C 330.07 500.33 338.84 496.11 347.94 492.88 C 364.63 485.40 380.53 476.16 395.25 465.29 C 399.69 462.84 402.64 458.55 406.89 455.84 C 412.65 451.35 418.37 446.77 423.33 441.38 C 428.34 436.04 434.08 431.34 438.42 425.40 C 443.03 420.96 446.66 415.66 450.78 410.79 C 456.76 402.91 462.16 394.59 467.79 386.48 C 468.25 385.14 468.72 383.75 469.76 382.72 C 472.21 380.04 473.78 376.71 475.62 373.61 C 479.20 366.61 483.36 359.90 486.42 352.64 C 488.43 348.54 489.73 344.10 492.26 340.27 C 497.89 327.64 502.10 314.47 506.40 301.35 C 507.77 296.35 508.80 291.26 510.44 286.34 C 512.26 279.65 513.26 272.77 514.74 266.00 C 514.70 260.61 516.39 255.39 515.91 249.98 C 515.35 243.45 517.37 237.07 516.94 230.56 C 514.94 228.23 517.08 224.75 515.11 222.45 C 514.83 220.45 515.52 218.16 514.16 216.46 C 513.94 214.78 514.25 212.94 513.23 211.47 C 512.99 210.11 513.01 208.67 512.23 207.48 C 511.99 206.12 511.99 204.68 511.25 203.47 C 511.01 202.13 510.88 200.75 510.36 199.49 C 510.00 198.49 509.66 197.50 509.33 196.50 C 509.00 195.50 508.67 194.50 508.33 193.50 C 508.00 192.50 507.67 191.50 507.33 190.50 C 507.00 189.50 506.67 188.50 506.32 187.51 C 506.01 186.52 505.70 185.54 505.40 184.56 C 505.08 184.06 504.44 183.06 504.12 182.56 C 504.05 182.04 503.91 181.00 503.84 180.49 C 502.91 178.90 502.00 177.27 501.73 175.43 C 501.48 174.92 500.97 173.90 500.71 173.40 C 499.89 171.81 499.10 170.20 498.27 168.62 C 497.77 167.53 497.25 166.45 496.77 165.36 C 496.15 164.31 495.56 163.26 494.84 162.29 C 494.85 160.25 494.12 158.33 493.28 156.51 C 493.15 156.01 492.88 155.02 492.75 154.52 C 492.37 153.52 491.99 152.52 491.63 151.52 C 491.32 150.49 491.02 149.47 490.74 148.44 C 490.26 147.48 489.78 146.53 489.31 145.57 C 483.85 130.09 475.23 115.82 464.75 103.23 C 459.88 98.42 455.11 93.53 450.22 88.76 C 441.32 81.62 431.68 75.43 421.55 70.19 C 421.04 70.10 420.01 69.92 419.49 69.83 C 417.18 68.60 414.84 67.41 412.53 66.19 C 412.03 66.08 411.02 65.87 410.52 65.76 C 409.51 65.39 408.50 65.03 407.50 64.67 C 405.52 63.78 403.50 62.98 401.50 62.17 C 400.50 62.05 399.50 61.94 398.51 61.83 C 397.19 61.28 395.86 60.77 394.53 60.27 C 393.13 60.01 391.74 59.75 390.41 59.26 C 389.46 59.08 388.52 58.92 387.58 58.77 C 385.78 58.34 384.08 57.61 382.31 57.13 L 381.63 57.60 C 375.27 53.94 367.94 52.69 361.31 49.70 C 357.15 48.76 353.19 47.02 348.95 46.53 C 341.93 46.05 335.07 44.06 327.99 44.38 C 323.48 43.79 318.96 43.18 314.41 43.77 C 313.93 42.10 314.67 39.36 312.74 38.48 C 304.27 35.09 295.29 33.27 286.37 31.50 C 283.93 31.02 281.44 30.89 278.97 30.90 C 267.98 30.93 257.00 31.06 246.02 30.89 C 240.36 30.76 234.87 32.31 229.36 33.42 M 517.68 232.77 C 517.75 233.18 517.87 234.00 517.93 234.41 C 518.62 245.56 518.20 256.71 516.91 267.80 C 515.04 275.87 514.23 284.26 511.18 292.03 C 509.10 302.37 505.15 312.23 501.94 322.26 C 500.45 325.97 499.66 330.22 496.72 333.12 C 496.60 334.66 496.65 336.26 495.95 337.69 C 495.03 339.82 494.72 342.47 492.57 343.79 C 491.74 344.86 491.25 346.09 491.41 347.50 L 490.91 347.62 C 489.84 351.01 487.44 353.77 486.17 357.08 C 482.02 364.70 479.05 372.91 474.27 380.18 C 473.24 381.84 472.24 383.51 471.25 385.19 C 469.27 388.56 467.06 391.80 464.88 395.06 C 463.35 397.48 461.74 399.85 459.92 402.06 C 455.71 408.76 450.46 414.71 445.71 421.00 C 442.18 424.39 439.17 428.25 435.93 431.89 C 429.60 438.27 423.11 444.49 416.78 450.87 C 408.03 458.20 399.23 465.53 389.82 472.02 C 384.59 475.53 379.29 478.91 373.94 482.22 C 372.25 483.10 370.60 484.04 368.97 485.00 C 367.92 485.61 366.88 486.23 365.85 486.86 C 361.53 488.85 357.32 491.04 353.04 493.11 C 329.68 504.06 304.50 510.94 278.96 514.17 C 275.31 514.48 271.63 514.36 267.99 514.78 C 266.29 513.72 263.08 512.60 262.26 515.30 C 262.58 517.13 263.88 519.03 265.96 518.89 C 277.94 519.23 289.94 518.88 301.92 519.10 C 336.69 516.42 371.13 506.85 401.49 489.53 C 409.13 485.08 417.02 481.09 424.64 476.60 C 437.27 470.63 447.59 461.03 457.49 451.40 C 461.91 448.52 464.43 443.76 468.37 440.36 C 479.86 428.10 490.14 414.56 497.53 399.40 C 502.59 391.40 505.91 382.55 510.03 374.08 C 519.28 351.79 524.70 328.00 526.96 304.00 C 526.63 294.60 529.44 285.21 527.36 275.85 C 526.84 262.20 525.26 248.49 521.51 235.32 C 521.06 233.62 518.98 233.47 517.68 232.77 Z" />
<path fill="#040632" opacity="1.00" d=" M 290.85 43.94 C 295.62 42.88 300.52 42.53 305.39 42.15 C 307.99 42.83 310.60 43.54 313.29 43.79 C 306.63 43.80 299.97 44.37 293.41 45.50 C 263.70 53.44 234.26 62.48 205.44 73.23 C 169.79 86.72 134.73 103.04 104.37 126.38 C 98.96 130.96 93.47 135.44 88.00 139.96 C 87.71 139.77 87.12 139.40 86.83 139.22 C 88.11 136.80 90.38 135.18 92.33 133.36 C 102.68 124.20 113.92 116.09 125.64 108.78 C 156.72 89.81 190.43 75.48 224.93 64.01 C 246.62 56.45 268.65 49.83 290.85 43.94 Z" />
<path fill="#040632" opacity="1.00" d=" M 288.00 108.98 C 299.79 97.42 320.70 96.67 332.83 108.09 C 331.09 110.47 328.04 110.65 325.50 111.66 C 322.72 112.76 320.11 114.24 317.40 115.48 C 307.48 121.17 298.53 128.40 289.99 135.96 C 285.91 140.17 281.35 144.01 278.13 148.96 C 272.42 154.98 267.10 161.48 262.79 168.59 C 261.97 167.96 261.19 167.30 260.43 166.62 C 256.15 158.83 249.18 153.00 242.06 147.91 C 237.58 144.79 233.39 141.22 228.56 138.61 C 220.10 133.85 211.44 129.32 202.40 125.77 C 199.17 124.14 195.93 122.55 192.51 121.40 C 188.56 120.07 184.69 118.52 180.89 116.83 C 180.91 116.21 180.94 114.97 180.96 114.35 C 183.36 113.01 184.76 110.60 186.67 108.72 C 191.51 105.02 197.63 103.99 203.52 103.31 C 206.18 103.90 208.97 103.59 211.58 104.45 C 217.32 105.62 222.39 108.61 227.47 111.36 C 234.03 114.96 239.79 119.82 245.79 124.25 C 251.13 129.62 257.49 134.24 261.43 140.83 C 263.12 138.04 265.04 135.39 266.64 132.55 C 269.22 129.17 271.12 125.20 274.32 122.35 C 278.17 117.23 283.06 113.02 288.00 108.98 Z" />
<path fill="#040632" opacity="1.00" d=" M 329.13 132.09 C 337.83 125.02 346.03 117.33 355.06 110.67 C 367.17 113.65 379.46 115.90 391.61 118.69 C 393.63 119.49 392.32 121.49 390.99 122.20 C 380.50 129.12 370.42 136.64 360.43 144.25 C 356.13 147.32 352.67 151.44 348.05 154.07 C 344.27 157.99 339.65 160.93 335.99 164.97 C 331.13 169.80 325.90 174.28 321.33 179.40 C 318.07 183.14 314.15 186.29 311.31 190.40 C 309.32 193.33 305.69 195.10 304.76 198.69 C 302.91 200.54 301.00 202.37 299.64 204.62 C 297.87 205.86 296.53 207.56 295.31 209.33 C 286.60 220.78 278.72 232.81 270.72 244.76 C 269.70 246.78 267.89 244.52 267.36 243.40 C 263.00 236.39 257.57 230.08 251.57 224.42 C 244.47 218.72 237.40 212.84 229.19 208.75 C 225.84 206.86 222.27 205.37 218.56 204.37 C 218.05 204.11 217.03 203.60 216.52 203.35 C 214.77 202.92 213.13 202.17 211.55 201.34 C 209.87 200.70 208.18 200.08 206.51 199.44 C 205.50 199.12 204.51 198.78 203.52 198.43 C 200.49 197.39 197.40 196.59 194.31 195.81 C 194.00 195.36 193.38 194.48 193.07 194.04 C 201.84 186.56 209.77 178.19 218.00 170.13 C 219.05 169.27 220.37 167.58 221.90 168.51 C 230.32 172.99 238.24 178.39 245.46 184.63 C 250.83 188.16 254.26 193.73 259.04 197.93 C 262.33 201.16 266.46 203.74 268.50 208.06 C 269.64 205.01 271.25 202.17 272.86 199.35 C 276.11 193.22 280.17 187.50 283.35 181.38 C 286.64 178.63 288.57 174.63 291.52 171.54 C 293.78 168.24 296.77 165.58 299.33 162.54 C 302.42 157.97 307.05 154.76 310.37 150.38 C 311.52 149.54 312.54 148.53 313.38 147.38 C 318.88 142.55 323.86 137.16 329.13 132.09 Z" />
<path fill="#040632" opacity="1.00" d=" M 402.20 131.26 C 407.72 127.04 413.16 122.63 419.31 119.35 C 419.77 119.51 420.69 119.82 421.15 119.98 C 421.06 140.92 421.20 161.86 421.08 182.80 C 410.24 189.79 398.99 196.14 388.45 203.59 C 377.65 210.87 367.57 219.14 357.84 227.78 C 353.41 230.97 350.06 235.39 345.57 238.52 C 340.42 244.03 334.15 248.63 330.21 255.16 C 327.94 256.94 325.85 258.95 324.24 261.37 C 318.26 268.03 312.02 274.68 307.66 282.56 C 300.54 291.13 295.15 301.04 289.72 310.75 C 288.14 313.68 286.27 316.56 285.75 319.92 L 285.19 320.21 C 283.16 324.88 281.03 329.54 278.29 333.84 C 313.51 334.08 348.74 333.85 383.97 333.96 C 387.61 334.53 391.79 331.97 391.86 328.04 C 392.02 290.15 391.79 252.25 391.98 214.36 C 396.37 212.10 400.35 209.14 404.60 206.63 C 410.05 203.64 414.90 199.17 421.06 197.72 C 421.21 230.13 421.08 262.55 421.12 294.96 C 420.99 309.79 421.39 324.62 420.91 339.43 C 418.98 342.52 418.87 346.52 416.36 349.26 C 413.04 353.44 409.13 357.13 404.55 359.88 C 404.05 359.99 403.07 360.21 402.58 360.32 C 399.60 361.32 396.40 362.03 393.26 361.53 C 398.41 364.90 403.29 369.72 404.30 376.07 C 406.67 384.40 403.49 393.78 397.13 399.49 C 396.57 408.49 398.70 418.06 394.69 426.53 C 390.94 433.74 383.10 437.59 375.24 438.23 C 369.57 449.15 356.88 452.48 348.21 460.23 C 344.91 462.14 340.19 461.11 338.19 457.82 C 335.78 454.26 333.63 450.55 331.31 446.95 C 327.52 449.92 323.91 453.10 320.44 456.44 C 318.04 458.77 314.41 460.65 311.06 459.28 C 307.79 458.38 305.76 455.49 303.75 453.00 C 301.73 450.47 299.05 448.27 298.08 445.07 C 296.79 442.04 298.10 438.51 300.39 436.35 C 304.05 432.78 307.85 429.35 311.74 426.03 C 309.30 423.20 306.39 420.09 306.78 416.06 C 307.27 410.73 312.54 408.23 315.99 404.93 C 318.82 402.21 322.87 399.45 326.94 401.00 C 329.03 401.40 330.27 403.29 331.71 404.66 C 335.68 393.49 347.97 386.12 359.67 388.61 C 356.68 378.76 360.40 367.14 369.45 361.81 C 316.67 361.72 263.88 361.84 211.10 361.75 C 214.53 364.93 218.55 367.93 220.29 372.45 C 222.67 377.82 222.76 384.00 221.31 389.63 C 227.66 387.06 234.94 387.95 240.98 390.92 C 247.05 394.48 251.35 400.60 253.07 407.38 C 256.49 404.74 259.49 400.95 264.10 400.52 C 267.47 400.28 270.02 402.66 272.14 404.93 C 272.15 397.62 272.12 390.30 272.14 382.99 C 272.22 379.49 273.23 375.57 276.45 373.68 C 279.71 372.01 283.47 372.48 287.00 372.40 C 290.31 372.39 293.89 372.30 296.85 374.03 C 300.12 376.14 300.60 380.38 300.59 383.94 C 300.49 399.14 300.70 414.34 300.49 429.54 C 300.40 434.08 296.36 437.62 291.98 437.95 C 287.39 438.23 282.68 438.47 278.17 437.33 C 275.25 442.79 271.11 447.49 266.17 451.20 C 262.09 454.30 258.92 459.59 253.28 459.78 C 246.74 459.20 244.08 452.47 239.80 448.51 C 235.16 451.66 230.18 454.27 225.58 457.48 C 223.29 459.63 220.34 462.02 216.96 460.99 C 212.51 460.33 210.99 455.57 208.70 452.37 C 206.61 448.60 202.52 444.72 204.33 440.04 C 205.53 435.95 209.53 433.94 212.90 431.90 C 212.10 431.10 211.31 430.30 210.52 429.51 C 203.47 439.10 189.57 439.73 179.10 436.37 C 172.95 438.52 166.35 438.33 159.94 437.94 C 156.38 437.66 153.00 435.17 152.35 431.53 C 151.50 427.04 151.94 422.42 151.96 417.88 C 152.01 413.06 155.72 408.54 160.72 408.46 C 158.75 404.75 155.90 400.32 158.07 396.08 C 159.12 393.18 162.01 391.75 164.60 390.49 C 168.29 388.74 171.80 386.46 175.89 385.72 C 174.60 376.37 179.43 366.79 187.38 361.84 C 176.75 361.27 165.98 362.79 155.46 360.84 C 144.37 356.90 136.01 345.95 136.19 334.03 C 136.11 285.35 136.10 236.66 136.19 187.97 C 135.65 175.17 146.27 163.95 158.38 161.38 C 162.13 160.13 166.13 160.87 170.00 160.69 C 182.98 160.86 196.00 160.36 208.95 160.93 L 209.43 162.15 C 205.62 167.02 200.55 170.81 196.75 175.73 C 191.34 180.32 186.49 185.51 181.41 190.46 C 176.29 190.89 169.89 188.58 165.88 192.82 C 164.47 194.89 163.31 197.39 163.45 199.97 C 163.48 241.00 163.47 282.04 163.45 323.07 C 163.47 325.56 164.07 328.05 165.00 330.36 C 165.74 332.29 168.02 332.75 169.52 333.91 C 204.43 334.03 239.35 333.81 274.26 334.02 C 269.36 328.26 264.64 322.33 259.41 316.84 C 255.26 313.21 251.23 309.43 246.78 306.16 C 239.75 300.03 232.34 294.23 223.99 289.98 C 219.78 287.92 215.90 285.12 211.40 283.72 C 207.76 282.01 204.21 280.09 200.40 278.76 C 198.79 277.96 197.16 277.20 195.53 276.44 C 190.78 274.58 185.80 273.48 181.00 271.82 C 180.10 269.73 182.74 269.04 183.93 268.00 C 192.06 257.44 203.91 250.58 212.20 240.17 C 213.00 239.24 214.66 237.69 215.74 239.19 C 225.94 247.31 236.36 255.23 245.41 264.65 C 250.72 270.01 256.29 275.21 260.60 281.46 C 264.02 286.26 267.99 290.75 270.65 296.05 C 270.73 292.24 273.43 289.21 275.06 285.95 C 277.81 280.57 281.22 275.54 284.26 270.35 C 284.19 270.13 284.06 269.69 283.99 269.46 C 285.62 268.74 286.02 267.01 286.68 265.55 C 287.67 263.88 288.74 262.27 289.67 260.58 C 291.83 256.64 294.85 253.27 297.03 249.35 C 305.99 235.97 314.86 222.48 325.19 210.12 C 327.67 207.21 330.06 204.22 332.42 201.22 C 337.94 196.04 341.78 189.41 347.09 184.03 C 350.43 179.11 355.27 175.59 359.47 171.48 C 365.66 164.04 372.95 157.63 379.70 150.71 C 387.24 144.28 395.08 138.17 402.20 131.26 M 196.29 368.25 C 192.46 369.07 188.85 371.35 186.95 374.84 C 182.98 381.72 185.39 391.63 192.79 395.12 C 201.46 400.04 213.58 393.05 213.61 383.08 C 214.57 374.06 205.05 365.88 196.29 368.25 M 377.10 368.07 C 371.30 369.99 367.02 375.91 367.38 382.06 C 367.15 390.82 376.69 398.18 385.10 395.67 C 391.69 394.35 396.62 387.75 395.82 381.03 C 396.25 371.78 385.56 364.84 377.10 368.07 M 280.25 429.97 C 284.31 430.01 288.38 430.01 292.45 430.00 C 292.49 413.51 292.45 397.02 292.47 380.53 C 288.45 380.55 284.42 380.55 280.40 380.43 C 280.08 396.94 280.38 413.46 280.25 429.97 M 165.07 399.23 C 167.30 404.74 171.16 409.69 171.89 415.72 C 168.05 417.02 163.96 416.44 160.00 416.54 C 160.00 421.02 160.00 425.51 160.00 429.99 C 166.39 429.75 173.50 431.26 179.05 427.21 C 181.47 428.60 184.03 429.98 186.91 429.96 C 191.11 430.10 195.57 430.37 199.47 428.54 C 203.54 426.71 206.68 422.67 206.90 418.13 C 207.17 411.76 206.91 405.38 207.00 399.00 C 203.00 399.00 199.00 399.00 195.01 399.00 C 194.88 404.03 195.24 409.07 194.86 414.10 C 194.81 416.49 191.83 416.77 190.02 416.53 C 187.11 416.44 185.87 413.55 184.77 411.33 C 181.97 405.43 178.86 399.68 175.91 393.85 C 172.28 395.61 168.68 397.43 165.07 399.23 M 218.15 400.26 C 210.96 406.44 210.49 419.01 217.64 425.39 C 220.91 428.53 225.45 429.63 229.80 430.22 C 224.25 434.86 217.74 438.14 211.70 442.08 C 213.84 445.52 216.01 448.95 218.18 452.39 C 223.49 449.34 228.64 446.02 233.88 442.86 C 238.68 439.94 242.22 435.32 244.34 430.16 C 245.56 430.07 246.78 429.99 248.00 429.92 C 247.99 425.62 248.04 421.31 247.95 417.01 C 245.51 416.47 246.28 413.60 245.73 411.81 C 244.96 405.56 241.21 399.16 235.02 397.04 C 229.35 395.28 222.64 396.17 218.15 400.26 M 344.20 400.22 C 336.95 406.39 336.48 419.04 343.68 425.43 C 346.96 428.54 351.49 429.67 355.86 430.20 C 350.25 434.81 343.77 438.19 337.66 442.06 C 339.84 445.50 342.03 448.95 344.17 452.42 C 349.46 449.33 354.63 446.03 359.88 442.86 C 364.69 439.93 368.25 435.29 370.37 430.11 C 374.06 429.96 377.96 430.24 381.38 428.58 C 385.52 426.77 388.69 422.67 388.91 418.10 C 389.15 411.73 388.92 405.36 389.00 399.00 C 385.00 399.00 381.00 399.00 377.00 399.00 C 376.89 404.03 377.22 409.07 376.87 414.09 C 377.06 416.39 372.32 417.91 372.25 415.05 C 371.67 410.04 370.50 404.80 366.94 401.01 C 361.31 394.60 350.42 394.71 344.20 400.22 M 254.55 416.79 C 257.01 420.11 261.47 423.82 259.49 428.43 C 256.07 434.28 249.83 437.67 245.36 442.63 C 248.06 445.69 250.70 448.82 253.32 451.95 C 259.74 445.56 268.43 440.68 271.70 431.80 C 274.39 423.28 269.73 414.64 264.42 408.21 C 261.13 411.07 257.81 413.89 254.55 416.79 M 314.53 416.82 C 316.54 419.34 318.99 421.74 319.92 424.92 C 320.52 427.65 318.72 430.07 316.96 431.94 C 313.27 435.68 309.04 438.84 305.35 442.60 C 308.08 445.70 310.67 448.91 313.47 451.95 C 319.71 445.43 328.50 440.69 331.71 431.78 C 334.38 423.27 329.72 414.65 324.45 408.22 C 321.13 411.07 317.78 413.89 314.53 416.82 Z" />
<path fill="#040632" opacity="1.00" d=" M 224.60 409.58 C 226.11 406.63 230.99 406.62 232.72 409.37 C 234.47 411.52 234.48 414.39 234.49 417.02 C 232.04 416.96 229.54 417.25 227.14 416.68 C 224.30 415.66 223.62 412.14 224.60 409.58 Z" />
<path fill="#040632" opacity="1.00" d=" M 350.95 408.96 C 352.37 407.16 354.88 407.15 356.90 407.72 C 360.07 409.63 360.68 413.62 360.47 417.02 C 358.06 416.96 355.60 417.23 353.23 416.72 C 350.12 415.66 349.40 411.54 350.95 408.96 Z" />
</g>
<g id="#03010cff">
<path fill="#03010c" opacity="1.00" d=" M 229.36 33.42 C 234.87 32.31 240.36 30.76 246.02 30.89 C 257.00 31.06 267.98 30.93 278.97 30.90 C 281.44 30.89 283.93 31.02 286.37 31.50 C 295.29 33.27 304.27 35.09 312.74 38.48 C 314.67 39.36 313.93 42.10 314.41 43.77 L 313.29 43.79 C 310.60 43.54 307.99 42.83 305.39 42.15 C 307.88 41.95 310.38 41.73 312.89 41.56 C 312.59 41.19 311.99 40.44 311.69 40.07 C 311.17 40.01 310.11 39.89 309.58 39.83 C 308.57 39.43 307.56 39.04 306.55 38.67 C 305.55 38.33 304.54 37.99 303.54 37.66 C 301.83 37.21 300.12 36.80 298.42 36.34 C 297.06 36.00 295.71 35.65 294.37 35.27 C 293.12 35.08 291.88 34.90 290.64 34.72 C 288.97 34.33 287.29 33.97 285.63 33.56 C 283.77 33.19 281.87 32.97 279.97 32.96 C 268.30 33.03 256.62 33.00 244.95 32.98 C 240.05 32.97 235.38 34.66 230.57 35.31 C 219.31 38.50 207.88 41.27 197.06 45.81 C 185.75 50.70 174.00 54.82 163.57 61.48 C 159.97 63.54 156.21 65.35 152.98 68.00 C 144.93 74.30 135.84 79.27 128.39 86.33 C 121.06 94.32 112.33 101.00 105.67 109.62 C 98.61 117.78 92.55 126.76 87.02 136.01 C 86.56 136.96 85.29 138.48 86.83 139.22 C 87.12 139.40 87.71 139.77 88.00 139.96 C 87.53 140.35 86.57 141.13 86.10 141.52 C 84.34 140.12 83.19 137.75 84.68 135.71 C 92.95 121.22 103.13 107.74 115.26 96.25 C 118.01 93.64 120.68 90.92 123.00 87.91 C 128.08 81.56 135.01 77.12 141.83 72.87 C 148.60 68.63 153.91 62.14 161.68 59.59 C 169.97 53.91 179.29 49.99 188.60 46.32 C 201.46 40.01 215.50 36.70 229.36 33.42 Z" />
<path fill="#03010c" opacity="1.00" d=" M 517.68 232.77 C 518.98 233.47 521.06 233.62 521.51 235.32 C 525.26 248.49 526.84 262.20 527.36 275.85 C 529.44 285.21 526.63 294.60 526.96 304.00 C 524.70 328.00 519.28 351.79 510.03 374.08 C 505.91 382.55 502.59 391.40 497.53 399.40 C 490.14 414.56 479.86 428.10 468.37 440.36 C 464.43 443.76 461.91 448.52 457.49 451.40 C 447.59 461.03 437.27 470.63 424.64 476.60 C 417.02 481.09 409.13 485.08 401.49 489.53 C 371.13 506.85 336.69 516.42 301.92 519.10 C 289.94 518.88 277.94 519.23 265.96 518.89 C 263.88 519.03 262.58 517.13 262.26 515.30 C 263.08 512.60 266.29 513.72 267.99 514.78 C 266.57 515.08 265.15 515.40 263.74 515.73 C 264.21 515.93 264.68 516.13 265.17 516.34 C 269.02 517.46 273.07 516.90 277.02 517.00 C 286.77 516.86 296.54 517.27 306.28 516.78 C 308.78 515.95 311.43 516.03 314.02 515.79 C 334.41 513.20 354.47 508.10 373.59 500.56 C 381.81 496.87 390.32 493.78 398.09 489.17 C 411.25 481.28 425.20 474.69 437.71 465.75 C 441.81 462.50 445.97 459.31 450.01 455.98 C 453.29 452.70 456.64 449.49 460.18 446.49 C 463.33 442.30 467.48 439.02 470.72 434.91 C 494.50 406.40 511.62 372.32 519.77 336.07 C 522.60 322.54 525.21 308.85 525.06 294.99 C 526.02 289.25 526.59 283.34 525.47 277.57 C 524.55 273.16 525.36 268.63 524.63 264.21 C 524.16 261.55 523.91 258.87 523.72 256.18 C 522.61 249.52 521.20 242.92 519.70 236.33 C 519.25 235.85 518.37 234.89 517.93 234.41 C 517.87 234.00 517.75 233.18 517.68 232.77 Z" />
</g>
<g id="#ff389aff">
<path fill="#ff389a" opacity="1.00" d=" M 230.57 35.31 C 235.38 34.66 240.05 32.97 244.95 32.98 C 256.62 33.00 268.30 33.03 279.97 32.96 C 281.87 32.97 283.77 33.19 285.63 33.56 C 287.29 33.97 288.97 34.33 290.64 34.72 C 291.88 34.90 293.12 35.08 294.37 35.27 C 295.71 35.65 297.06 36.00 298.42 36.34 C 300.12 36.80 301.83 37.21 303.54 37.66 C 304.54 37.99 305.55 38.33 306.55 38.67 C 307.56 39.04 308.57 39.43 309.58 39.83 C 310.11 39.89 311.17 40.01 311.69 40.07 C 311.99 40.44 312.59 41.19 312.89 41.56 C 310.38 41.73 307.88 41.95 305.39 42.15 C 300.52 42.53 295.62 42.88 290.85 43.94 C 268.65 49.83 246.62 56.45 224.93 64.01 C 190.43 75.48 156.72 89.81 125.64 108.78 C 113.92 116.09 102.68 124.20 92.33 133.36 C 90.38 135.18 88.11 136.80 86.83 139.22 C 85.29 138.48 86.56 136.96 87.02 136.01 C 92.55 126.76 98.61 117.78 105.67 109.62 C 112.33 101.00 121.06 94.32 128.39 86.33 C 135.84 79.27 144.93 74.30 152.98 68.00 C 156.21 65.35 159.97 63.54 163.57 61.48 C 174.00 54.82 185.75 50.70 197.06 45.81 C 207.88 41.27 219.31 38.50 230.57 35.31 Z" />
<path fill="#ff389a" opacity="1.00" d=" M 196.29 368.25 C 205.05 365.88 214.57 374.06 213.61 383.08 C 213.58 393.05 201.46 400.04 192.79 395.12 C 185.39 391.63 182.98 381.72 186.95 374.84 C 188.85 371.35 192.46 369.07 196.29 368.25 Z" />
<path fill="#ff389a" opacity="1.00" d=" M 377.10 368.07 C 385.56 364.84 396.25 371.78 395.82 381.03 C 396.62 387.75 391.69 394.35 385.10 395.67 C 376.69 398.18 367.15 390.82 367.38 382.06 C 367.02 375.91 371.30 369.99 377.10 368.07 Z" />
</g>
<g id="#ffffffff">
<path fill="#ffffff" opacity="1.00" d=" M 313.29 43.79 L 314.41 43.77 C 318.96 43.18 323.48 43.79 327.99 44.38 C 335.07 44.06 341.93 46.05 348.95 46.53 C 353.19 47.02 357.15 48.76 361.31 49.70 C 367.94 52.69 375.27 53.94 381.63 57.60 C 387.00 61.08 393.08 63.21 398.66 66.33 C 435.81 86.04 467.06 116.35 488.63 152.39 C 490.56 155.77 492.44 159.21 494.84 162.29 C 495.56 163.26 496.15 164.31 496.77 165.36 C 497.25 166.45 497.77 167.53 498.27 168.62 C 499.10 170.20 499.89 171.81 500.71 173.40 C 500.97 173.90 501.48 174.92 501.73 175.43 C 502.00 177.27 502.91 178.90 503.84 180.49 C 503.91 181.00 504.05 182.04 504.12 182.56 C 504.44 183.06 505.08 184.06 505.40 184.56 C 505.70 185.54 506.01 186.52 506.32 187.51 C 506.67 188.50 507.00 189.50 507.33 190.50 C 507.67 191.50 508.00 192.50 508.33 193.50 C 508.67 194.50 509.00 195.50 509.33 196.50 C 509.66 197.50 510.00 198.49 510.36 199.49 C 510.88 200.75 511.01 202.13 511.25 203.47 C 511.99 204.68 511.99 206.12 512.23 207.48 C 513.01 208.67 512.99 210.11 513.23 211.47 C 514.25 212.94 513.94 214.78 514.16 216.46 C 515.52 218.16 514.83 220.45 515.11 222.45 C 517.08 224.75 514.94 228.23 516.94 230.56 C 517.37 237.07 515.35 243.45 515.91 249.98 C 516.39 255.39 514.70 260.61 514.74 266.00 C 513.26 272.77 512.26 279.65 510.44 286.34 C 508.80 291.26 507.77 296.35 506.40 301.35 C 502.10 314.47 497.89 327.64 492.26 340.27 C 489.73 344.10 488.43 348.54 486.42 352.64 C 483.36 359.90 479.20 366.61 475.62 373.61 C 473.78 376.71 472.21 380.04 469.76 382.72 C 468.72 383.75 468.25 385.14 467.79 386.48 C 462.16 394.59 456.76 402.91 450.78 410.79 C 446.66 415.66 443.03 420.96 438.42 425.40 C 434.08 431.34 428.34 436.04 423.33 441.38 C 418.37 446.77 412.65 451.35 406.89 455.84 C 402.64 458.55 399.69 462.84 395.25 465.29 C 380.53 476.16 364.63 485.40 347.94 492.88 C 338.84 496.11 330.07 500.33 320.69 502.70 C 302.39 508.84 283.13 511.18 264.02 512.99 C 257.37 512.98 250.72 513.08 244.08 512.94 C 243.67 512.73 242.85 512.30 242.44 512.08 C 240.14 511.99 237.85 512.00 235.55 511.92 C 233.91 510.40 231.54 511.18 229.55 510.89 C 228.17 509.63 226.21 510.10 224.54 509.83 C 222.99 508.83 221.00 509.16 219.46 508.16 C 218.48 508.05 217.51 507.94 216.54 507.84 C 215.00 506.85 213.03 507.12 211.47 506.20 C 210.98 506.10 210.00 505.90 209.51 505.81 C 208.17 505.25 206.82 504.75 205.49 504.18 C 204.98 504.10 203.96 503.95 203.45 503.87 C 202.94 503.56 201.93 502.95 201.43 502.65 C 199.72 502.07 198.01 501.47 196.38 500.72 C 195.13 500.22 193.86 499.80 192.61 499.32 C 191.53 498.78 190.47 498.23 189.39 497.70 C 188.89 497.46 187.90 496.97 187.40 496.72 C 186.47 496.24 185.54 495.76 184.61 495.29 C 183.27 494.63 181.93 493.95 180.61 493.27 C 179.52 492.77 178.44 492.24 177.36 491.76 C 174.33 490.10 171.67 487.85 168.59 486.29 C 161.54 481.84 154.96 476.71 148.54 471.40 C 143.94 468.46 141.08 463.52 136.45 460.64 C 135.20 459.86 134.14 458.80 133.36 457.55 C 130.19 452.56 124.82 449.43 121.63 444.46 C 120.17 442.27 117.77 440.83 116.68 438.39 C 115.43 436.65 114.13 434.94 112.77 433.30 L 112.64 433.06 C 110.74 428.93 107.68 425.53 105.18 421.78 C 78.51 382.92 60.70 338.60 48.63 293.21 C 47.19 288.23 46.30 283.10 44.58 278.20 C 44.22 276.98 44.00 275.74 43.72 274.51 C 42.63 272.70 43.09 270.54 42.89 268.55 C 41.29 266.58 42.25 263.86 41.91 261.56 C 40.62 260.34 41.08 258.51 40.97 256.96 C 41.08 246.83 40.88 236.69 41.08 226.55 C 42.74 224.61 41.73 221.86 42.09 219.55 C 43.68 217.85 42.36 215.20 43.85 213.45 C 43.95 212.48 44.06 211.51 44.16 210.55 C 45.05 208.99 45.06 207.16 45.64 205.50 C 45.99 204.50 46.33 203.50 46.67 202.50 C 46.99 201.50 47.32 200.50 47.67 199.50 C 47.99 198.50 48.33 197.50 48.68 196.51 C 48.98 195.52 49.29 194.54 49.60 193.56 C 49.92 193.06 50.57 192.06 50.89 191.56 C 50.95 191.03 51.07 189.98 51.13 189.45 C 51.68 188.51 52.22 187.57 52.75 186.62 C 52.99 186.11 53.46 185.10 53.69 184.59 C 53.95 184.09 54.46 183.09 54.72 182.60 C 54.96 182.09 55.44 181.09 55.68 180.59 C 56.80 178.13 58.44 175.97 59.71 173.60 C 67.12 161.85 75.87 150.93 86.10 141.52 C 86.57 141.13 87.53 140.35 88.00 139.96 C 93.47 135.44 98.96 130.96 104.37 126.38 C 134.73 103.04 169.79 86.72 205.44 73.23 C 234.26 62.48 263.70 53.44 293.41 45.50 C 299.97 44.37 306.63 43.80 313.29 43.79 M 288.00 108.98 C 283.06 113.02 278.17 117.23 274.32 122.35 C 271.12 125.20 269.22 129.17 266.64 132.55 C 265.04 135.39 263.12 138.04 261.43 140.83 C 257.49 134.24 251.13 129.62 245.79 124.25 C 239.79 119.82 234.03 114.96 227.47 111.36 C 222.39 108.61 217.32 105.62 211.58 104.45 C 208.97 103.59 206.18 103.90 203.52 103.31 C 197.63 103.99 191.51 105.02 186.67 108.72 C 184.76 110.60 183.36 113.01 180.96 114.35 C 180.94 114.97 180.91 116.21 180.89 116.83 C 184.69 118.52 188.56 120.07 192.51 121.40 C 195.93 122.55 199.17 124.14 202.40 125.77 C 211.44 129.32 220.10 133.85 228.56 138.61 C 233.39 141.22 237.58 144.79 242.06 147.91 C 249.18 153.00 256.15 158.83 260.43 166.62 C 261.19 167.30 261.97 167.96 262.79 168.59 C 267.10 161.48 272.42 154.98 278.13 148.96 C 281.35 144.01 285.91 140.17 289.99 135.96 C 298.53 128.40 307.48 121.17 317.40 115.48 C 320.11 114.24 322.72 112.76 325.50 111.66 C 328.04 110.65 331.09 110.47 332.83 108.09 C 320.70 96.67 299.79 97.42 288.00 108.98 M 329.13 132.09 C 323.86 137.16 318.88 142.55 313.38 147.38 C 312.54 148.53 311.52 149.54 310.37 150.38 C 307.05 154.76 302.42 157.97 299.33 162.54 C 296.77 165.58 293.78 168.24 291.52 171.54 C 288.57 174.63 286.64 178.63 283.35 181.38 C 280.17 187.50 276.11 193.22 272.86 199.35 C 271.25 202.17 269.64 205.01 268.50 208.06 C 266.46 203.74 262.33 201.16 259.04 197.93 C 254.26 193.73 250.83 188.16 245.46 184.63 C 238.24 178.39 230.32 172.99 221.90 168.51 C 220.37 167.58 219.05 169.27 218.00 170.13 C 209.77 178.19 201.84 186.56 193.07 194.04 C 193.38 194.48 194.00 195.36 194.31 195.81 C 197.40 196.59 200.49 197.39 203.52 198.43 C 204.51 198.78 205.50 199.12 206.51 199.44 C 208.18 200.08 209.87 200.70 211.55 201.34 C 213.13 202.17 214.77 202.92 216.52 203.35 C 217.03 203.60 218.05 204.11 218.56 204.37 C 222.27 205.37 225.84 206.86 229.19 208.75 C 237.40 212.84 244.47 218.72 251.57 224.42 C 257.57 230.08 263.00 236.39 267.36 243.40 C 267.89 244.52 269.70 246.78 270.72 244.76 C 278.72 232.81 286.60 220.78 295.31 209.33 C 296.53 207.56 297.87 205.86 299.64 204.62 C 301.00 202.37 302.91 200.54 304.76 198.69 C 305.69 195.10 309.32 193.33 311.31 190.40 C 314.15 186.29 318.07 183.14 321.33 179.40 C 325.90 174.28 331.13 169.80 335.99 164.97 C 339.65 160.93 344.27 157.99 348.05 154.07 C 352.67 151.44 356.13 147.32 360.43 144.25 C 370.42 136.64 380.50 129.12 390.99 122.20 C 392.32 121.49 393.63 119.49 391.61 118.69 C 379.46 115.90 367.17 113.65 355.06 110.67 C 346.03 117.33 337.83 125.02 329.13 132.09 M 402.20 131.26 C 395.08 138.17 387.24 144.28 379.70 150.71 C 372.95 157.63 365.66 164.04 359.47 171.48 C 355.27 175.59 350.43 179.11 347.09 184.03 C 341.78 189.41 337.94 196.04 332.42 201.22 C 330.06 204.22 327.67 207.21 325.19 210.12 C 314.86 222.48 305.99 235.97 297.03 249.35 C 294.85 253.27 291.83 256.64 289.67 260.58 C 288.74 262.27 287.67 263.88 286.68 265.55 C 286.02 267.01 285.62 268.74 283.99 269.46 C 284.06 269.69 284.19 270.13 284.26 270.35 C 281.22 275.54 277.81 280.57 275.06 285.95 C 273.43 289.21 270.73 292.24 270.65 296.05 C 267.99 290.75 264.02 286.26 260.60 281.46 C 256.29 275.21 250.72 270.01 245.41 264.65 C 236.36 255.23 225.94 247.31 215.74 239.19 C 214.66 237.69 213.00 239.24 212.20 240.17 C 203.91 250.58 192.06 257.44 183.93 268.00 C 182.74 269.04 180.10 269.73 181.00 271.82 C 185.80 273.48 190.78 274.58 195.53 276.44 C 197.16 277.20 198.79 277.96 200.40 278.76 C 204.21 280.09 207.76 282.01 211.40 283.72 C 215.90 285.12 219.78 287.92 223.99 289.98 C 232.34 294.23 239.75 300.03 246.78 306.16 C 251.23 309.43 255.26 313.21 259.41 316.84 C 264.64 322.33 269.36 328.26 274.26 334.02 C 239.35 333.81 204.43 334.03 169.52 333.91 C 168.02 332.75 165.74 332.29 165.00 330.36 C 164.07 328.05 163.47 325.56 163.45 323.07 C 163.47 282.04 163.48 241.00 163.45 199.97 C 163.31 197.39 164.47 194.89 165.88 192.82 C 169.89 188.58 176.29 190.89 181.41 190.46 C 186.49 185.51 191.34 180.32 196.75 175.73 C 200.55 170.81 205.62 167.02 209.43 162.15 L 208.95 160.93 C 196.00 160.36 182.98 160.86 170.00 160.69 C 166.13 160.87 162.13 160.13 158.38 161.38 C 146.27 163.95 135.65 175.17 136.19 187.97 C 136.10 236.66 136.11 285.35 136.19 334.03 C 136.01 345.95 144.37 356.90 155.46 360.84 C 165.98 362.79 176.75 361.27 187.38 361.84 C 179.43 366.79 174.60 376.37 175.89 385.72 C 171.80 386.46 168.29 388.74 164.60 390.49 C 162.01 391.75 159.12 393.18 158.07 396.08 C 155.90 400.32 158.75 404.75 160.72 408.46 C 155.72 408.54 152.01 413.06 151.96 417.88 C 151.94 422.42 151.50 427.04 152.35 431.53 C 153.00 435.17 156.38 437.66 159.94 437.94 C 166.35 438.33 172.95 438.52 179.10 436.37 C 189.57 439.73 203.47 439.10 210.52 429.51 C 211.31 430.30 212.10 431.10 212.90 431.90 C 209.53 433.94 205.53 435.95 204.33 440.04 C 202.52 444.72 206.61 448.60 208.70 452.37 C 210.99 455.57 212.51 460.33 216.96 460.99 C 220.34 462.02 223.29 459.63 225.58 457.48 C 230.18 454.27 235.16 451.66 239.80 448.51 C 244.08 452.47 246.74 459.20 253.28 459.78 C 258.92 459.59 262.09 454.30 266.17 451.20 C 271.11 447.49 275.25 442.79 278.17 437.33 C 282.68 438.47 287.39 438.23 291.98 437.95 C 296.36 437.62 300.40 434.08 300.49 429.54 C 300.70 414.34 300.49 399.14 300.59 383.94 C 300.60 380.38 300.12 376.14 296.85 374.03 C 293.89 372.30 290.31 372.39 287.00 372.40 C 283.47 372.48 279.71 372.01 276.45 373.68 C 273.23 375.57 272.22 379.49 272.14 382.99 C 272.12 390.30 272.15 397.62 272.14 404.93 C 270.02 402.66 267.47 400.28 264.10 400.52 C 259.49 400.95 256.49 404.74 253.07 407.38 C 251.35 400.60 247.05 394.48 240.98 390.92 C 234.94 387.95 227.66 387.06 221.31 389.63 C 222.76 384.00 222.67 377.82 220.29 372.45 C 218.55 367.93 214.53 364.93 211.10 361.75 C 263.88 361.84 316.67 361.72 369.45 361.81 C 360.40 367.14 356.68 378.76 359.67 388.61 C 347.97 386.12 335.68 393.49 331.71 404.66 C 330.27 403.29 329.03 401.40 326.94 401.00 C 322.87 399.45 318.82 402.21 315.99 404.93 C 312.54 408.23 307.27 410.73 306.78 416.06 C 306.39 420.09 309.30 423.20 311.74 426.03 C 307.85 429.35 304.05 432.78 300.39 436.35 C 298.10 438.51 296.79 442.04 298.08 445.07 C 299.05 448.27 301.73 450.47 303.75 453.00 C 305.76 455.49 307.79 458.38 311.06 459.28 C 314.41 460.65 318.04 458.77 320.44 456.44 C 323.91 453.10 327.52 449.92 331.31 446.95 C 333.63 450.55 335.78 454.26 338.19 457.82 C 340.19 461.11 344.91 462.14 348.21 460.23 C 356.88 452.48 369.57 449.15 375.24 438.23 C 383.10 437.59 390.94 433.74 394.69 426.53 C 398.70 418.06 396.57 408.49 397.13 399.49 C 403.49 393.78 406.67 384.40 404.30 376.07 C 403.29 369.72 398.41 364.90 393.26 361.53 C 396.40 362.03 399.60 361.32 402.58 360.32 C 403.07 360.21 404.05 359.99 404.55 359.88 C 409.13 357.13 413.04 353.44 416.36 349.26 C 418.87 346.52 418.98 342.52 420.91 339.43 C 421.39 324.62 420.99 309.79 421.12 294.96 C 421.08 262.55 421.21 230.13 421.06 197.72 C 414.90 199.17 410.05 203.64 404.60 206.63 C 400.35 209.14 396.37 212.10 391.98 214.36 C 391.79 252.25 392.02 290.15 391.86 328.04 C 391.79 331.97 387.61 334.53 383.97 333.96 C 348.74 333.85 313.51 334.08 278.29 333.84 C 281.03 329.54 283.16 324.88 285.19 320.21 L 285.75 319.92 C 286.27 316.56 288.14 313.68 289.72 310.75 C 295.15 301.04 300.54 291.13 307.66 282.56 C 312.02 274.68 318.26 268.03 324.24 261.37 C 325.85 258.95 327.94 256.94 330.21 255.16 C 334.15 248.63 340.42 244.03 345.57 238.52 C 350.06 235.39 353.41 230.97 357.84 227.78 C 367.57 219.14 377.65 210.87 388.45 203.59 C 398.99 196.14 410.24 189.79 421.08 182.80 C 421.20 161.86 421.06 140.92 421.15 119.98 C 420.69 119.82 419.77 119.51 419.31 119.35 C 413.16 122.63 407.72 127.04 402.20 131.26 Z" />
<path fill="#ffffff" opacity="1.00" d=" M 511.18 292.03 C 514.23 284.26 515.04 275.87 516.91 267.80 C 516.50 272.88 515.36 277.86 514.25 282.83 C 509.19 303.40 502.40 323.54 494.06 343.01 C 492.57 346.86 488.78 350.41 490.01 354.82 C 489.63 354.91 488.86 355.08 488.48 355.16 C 485.98 360.16 483.82 365.38 480.73 370.07 C 474.87 379.79 469.35 389.74 462.77 399.02 C 457.34 406.53 452.18 414.33 445.71 421.00 C 450.46 414.71 455.71 408.76 459.92 402.06 C 461.74 399.85 463.35 397.48 464.88 395.06 C 467.06 391.80 469.27 388.56 471.25 385.19 C 472.24 383.51 473.24 381.84 474.27 380.18 C 479.05 372.91 482.02 364.70 486.17 357.08 C 487.44 353.77 489.84 351.01 490.91 347.62 L 491.41 347.50 C 491.25 346.09 491.74 344.86 492.57 343.79 C 494.72 342.47 495.03 339.82 495.95 337.69 C 496.65 336.26 496.60 334.66 496.72 333.12 C 499.66 330.22 500.45 325.97 501.94 322.26 C 505.15 312.23 509.10 302.37 511.18 292.03 Z" />
<path fill="#ffffff" opacity="1.00" d=" M 389.82 472.02 C 399.23 465.53 408.03 458.20 416.78 450.87 C 408.63 459.07 399.15 465.85 389.75 472.53 C 357.00 495.24 318.67 510.07 279.00 514.39 C 274.41 515.13 269.39 513.96 265.17 516.34 C 264.68 516.13 264.21 515.93 263.74 515.73 C 265.15 515.40 266.57 515.08 267.99 514.78 C 271.63 514.36 275.31 514.48 278.96 514.17 C 304.50 510.94 329.68 504.06 353.04 493.11 C 357.32 491.04 361.53 488.85 365.85 486.86 C 366.88 486.23 367.92 485.61 368.97 485.00 C 370.60 484.04 372.25 483.10 373.94 482.22 C 379.29 478.91 384.59 475.53 389.82 472.02 Z" />
</g>
<g id="#531cf3ff">
<path fill="#531cf3" opacity="1.00" d=" M 381.63 57.60 L 382.31 57.13 C 384.08 57.61 385.78 58.34 387.58 58.77 C 388.52 58.92 389.46 59.08 390.41 59.26 C 391.74 59.75 393.13 60.01 394.53 60.27 C 395.86 60.77 397.19 61.28 398.51 61.83 C 399.50 61.94 400.50 62.05 401.50 62.17 C 403.50 62.98 405.52 63.78 407.50 64.67 C 408.50 65.03 409.51 65.39 410.52 65.76 C 411.02 65.87 412.03 66.08 412.53 66.19 C 414.84 67.41 417.18 68.60 419.49 69.83 C 420.01 69.92 421.04 70.10 421.55 70.19 C 431.68 75.43 441.32 81.62 450.22 88.76 C 455.11 93.53 459.88 98.42 464.75 103.23 C 475.23 115.82 483.85 130.09 489.31 145.57 C 489.78 146.53 490.26 147.48 490.74 148.44 C 491.02 149.47 491.32 150.49 491.63 151.52 C 491.99 152.52 492.37 153.52 492.75 154.52 C 492.88 155.02 493.15 156.01 493.28 156.51 C 494.12 158.33 494.85 160.25 494.84 162.29 C 492.44 159.21 490.56 155.77 488.63 152.39 C 467.06 116.35 435.81 86.04 398.66 66.33 C 393.08 63.21 387.00 61.08 381.63 57.60 Z" />
<path fill="#531cf3" opacity="1.00" d=" M 44.58 278.20 C 46.30 283.10 47.19 288.23 48.63 293.21 C 60.70 338.60 78.51 382.92 105.18 421.78 C 107.68 425.53 110.74 428.93 112.64 433.06 C 108.77 432.19 106.45 428.83 103.75 426.25 C 100.18 422.48 96.08 419.17 93.13 414.85 C 82.31 403.37 73.26 390.27 65.33 376.64 C 62.49 370.54 58.85 364.79 56.69 358.40 C 56.19 357.44 55.68 356.48 55.17 355.53 C 55.07 355.03 54.88 354.02 54.78 353.52 C 53.93 351.89 53.21 350.21 52.64 348.48 C 52.19 347.14 51.74 345.80 51.29 344.47 C 51.00 343.11 50.71 341.76 50.33 340.44 C 50.17 339.97 49.86 339.03 49.70 338.56 C 49.35 336.81 48.68 335.15 48.24 333.43 C 48.08 332.48 47.92 331.54 47.74 330.61 C 47.09 328.56 46.93 326.40 46.23 324.37 C 46.00 322.35 46.18 320.21 45.18 318.37 C 44.94 316.03 45.33 313.51 44.16 311.37 C 43.81 304.58 44.08 297.77 44.00 290.98 C 44.09 286.72 43.59 282.39 44.58 278.20 Z" />
</g>
<g id="#f5a141ff">
<path fill="#f5a141" opacity="1.00" d=" M 517.93 234.41 C 518.37 234.89 519.25 235.85 519.70 236.33 C 521.20 242.92 522.61 249.52 523.72 256.18 C 523.91 258.87 524.16 261.55 524.63 264.21 C 525.36 268.63 524.55 273.16 525.47 277.57 C 526.59 283.34 526.02 289.25 525.06 294.99 C 525.21 308.85 522.60 322.54 519.77 336.07 C 511.62 372.32 494.50 406.40 470.72 434.91 C 467.48 439.02 463.33 442.30 460.18 446.49 C 456.64 449.49 453.29 452.70 450.01 455.98 C 445.97 459.31 441.81 462.50 437.71 465.75 C 425.20 474.69 411.25 481.28 398.09 489.17 C 390.32 493.78 381.81 496.87 373.59 500.56 C 354.47 508.10 334.41 513.20 314.02 515.79 C 311.43 516.03 308.78 515.95 306.28 516.78 C 296.54 517.27 286.77 516.86 277.02 517.00 C 273.07 516.90 269.02 517.46 265.17 516.34 C 269.39 513.96 274.41 515.13 279.00 514.39 C 318.67 510.07 357.00 495.24 389.75 472.53 C 399.15 465.85 408.63 459.07 416.78 450.87 C 423.11 444.49 429.60 438.27 435.93 431.89 C 439.17 428.25 442.18 424.39 445.71 421.00 C 452.18 414.33 457.34 406.53 462.77 399.02 C 469.35 389.74 474.87 379.79 480.73 370.07 C 483.82 365.38 485.98 360.16 488.48 355.16 C 488.86 355.08 489.63 354.91 490.01 354.82 C 488.78 350.41 492.57 346.86 494.06 343.01 C 502.40 323.54 509.19 303.40 514.25 282.83 C 515.36 277.86 516.50 272.88 516.91 267.80 C 518.20 256.71 518.62 245.56 517.93 234.41 Z" />
</g>
<g id="#531cf4ff">
<path fill="#531cf4" opacity="1.00" d=" M 280.25 429.97 C 280.38 413.46 280.08 396.94 280.40 380.43 C 284.42 380.55 288.45 380.55 292.47 380.53 C 292.45 397.02 292.49 413.51 292.45 430.00 C 288.38 430.01 284.31 430.01 280.25 429.97 Z" />
<path fill="#531cf4" opacity="1.00" d=" M 165.07 399.23 C 168.68 397.43 172.28 395.61 175.91 393.85 C 178.86 399.68 181.97 405.43 184.77 411.33 C 185.87 413.55 187.11 416.44 190.02 416.53 C 191.83 416.77 194.81 416.49 194.86 414.10 C 195.24 409.07 194.88 404.03 195.01 399.00 C 199.00 399.00 203.00 399.00 207.00 399.00 C 206.91 405.38 207.17 411.76 206.90 418.13 C 206.68 422.67 203.54 426.71 199.47 428.54 C 195.57 430.37 191.11 430.10 186.91 429.96 C 184.03 429.98 181.47 428.60 179.05 427.21 C 173.50 431.26 166.39 429.75 160.00 429.99 C 160.00 425.51 160.00 421.02 160.00 416.54 C 163.96 416.44 168.05 417.02 171.89 415.72 C 171.16 409.69 167.30 404.74 165.07 399.23 Z" />
<path fill="#531cf4" opacity="1.00" d=" M 218.15 400.26 C 222.64 396.17 229.35 395.28 235.02 397.04 C 241.21 399.16 244.96 405.56 245.73 411.81 C 246.28 413.60 245.51 416.47 247.95 417.01 C 248.04 421.31 247.99 425.62 248.00 429.92 C 246.78 429.99 245.56 430.07 244.34 430.16 C 242.22 435.32 238.68 439.94 233.88 442.86 C 228.64 446.02 223.49 449.34 218.18 452.39 C 216.01 448.95 213.84 445.52 211.70 442.08 C 217.74 438.14 224.25 434.86 229.80 430.22 C 225.45 429.63 220.91 428.53 217.64 425.39 C 210.49 419.01 210.96 406.44 218.15 400.26 M 224.60 409.58 C 223.62 412.14 224.30 415.66 227.14 416.68 C 229.54 417.25 232.04 416.96 234.49 417.02 C 234.48 414.39 234.47 411.52 232.72 409.37 C 230.99 406.62 226.11 406.63 224.60 409.58 Z" />
<path fill="#531cf4" opacity="1.00" d=" M 254.55 416.79 C 257.81 413.89 261.13 411.07 264.42 408.21 C 269.73 414.64 274.39 423.28 271.70 431.80 C 268.43 440.68 259.74 445.56 253.32 451.95 C 250.70 448.82 248.06 445.69 245.36 442.63 C 249.83 437.67 256.07 434.28 259.49 428.43 C 261.47 423.82 257.01 420.11 254.55 416.79 Z" />
</g>
<g id="#f5a142ff">
<path fill="#f5a142" opacity="1.00" d=" M 344.20 400.22 C 350.42 394.71 361.31 394.60 366.94 401.01 C 370.50 404.80 371.67 410.04 372.25 415.05 C 372.32 417.91 377.06 416.39 376.87 414.09 C 377.22 409.07 376.89 404.03 377.00 399.00 C 381.00 399.00 385.00 399.00 389.00 399.00 C 388.92 405.36 389.15 411.73 388.91 418.10 C 388.69 422.67 385.52 426.77 381.38 428.58 C 377.96 430.24 374.06 429.96 370.37 430.11 C 368.25 435.29 364.69 439.93 359.88 442.86 C 354.63 446.03 349.46 449.33 344.17 452.42 C 342.03 448.95 339.84 445.50 337.66 442.06 C 343.77 438.19 350.25 434.81 355.86 430.20 C 351.49 429.67 346.96 428.54 343.68 425.43 C 336.48 419.04 336.95 406.39 344.20 400.22 M 350.95 408.96 C 349.40 411.54 350.12 415.66 353.23 416.72 C 355.60 417.23 358.06 416.96 360.47 417.02 C 360.68 413.62 360.07 409.63 356.90 407.72 C 354.88 407.15 352.37 407.16 350.95 408.96 Z" />
<path fill="#f5a142" opacity="1.00" d=" M 314.53 416.82 C 317.78 413.89 321.13 411.07 324.45 408.22 C 329.72 414.65 334.38 423.27 331.71 431.78 C 328.50 440.69 319.71 445.43 313.47 451.95 C 310.67 448.91 308.08 445.70 305.35 442.60 C 309.04 438.84 313.27 435.68 316.96 431.94 C 318.72 430.07 320.52 427.65 319.92 424.92 C 318.99 421.74 316.54 419.34 314.53 416.82 Z" />
</g>
</svg>
